<svg version="1.1" id="Layer_1" xmlns="http://www.w3.org/2000/svg" xmlns:xlink="http://www.w3.org/1999/xlink" x="0px" y="0px"
	 width="100%" viewBox="0 0 500 257" enable-background="new 0 0 500 257" xml:space="preserve">
<path fill="#FFFEFE" opacity="1.000000" stroke="none" 
	d="
M375.000000,258.000000 
	C250.000000,258.000000 125.500000,258.000000 1.000000,258.000000 
	C1.000000,172.333328 1.000000,86.666664 1.000000,1.000000 
	C167.666672,1.000000 334.333344,1.000000 501.000000,1.000000 
	C501.000000,86.666664 501.000000,172.333328 501.000000,258.000000 
	C459.166656,258.000000 417.333344,258.000000 375.000000,258.000000 
M190.163193,148.932617 
	C186.831726,148.995163 183.500244,149.057709 179.697906,148.966019 
	C179.697906,148.966019 179.202637,148.951691 179.186676,148.133682 
	C182.285172,122.799576 185.383652,97.465462 188.490280,72.064804 
	C179.541046,72.064804 171.457626,72.064804 163.124191,72.064804 
	C159.647079,113.092087 156.193573,153.840790 152.740067,194.589478 
	C152.484360,194.595154 152.228653,194.600830 151.972946,194.606506 
	C149.188461,153.811890 146.403961,113.017273 143.606857,72.037758 
	C134.991943,72.037758 126.755714,72.037758 118.242203,72.037758 
	C115.073296,111.807671 111.924255,151.328125 108.775223,190.848572 
	C108.345032,190.816986 107.914833,190.785385 107.484642,190.753784 
	C104.576958,151.164810 101.669273,111.575844 98.776443,72.189232 
	C89.866714,72.189232 81.654449,72.189232 73.340607,72.189232 
	C78.718124,125.935081 84.052048,179.245163 89.405884,232.754364 
	C100.292183,232.754364 110.862183,232.754364 121.781105,232.754364 
	C124.622147,195.585800 127.446510,158.635330 130.270874,121.684875 
	C132.022980,140.141052 133.089905,158.578384 134.242783,177.010330 
	C135.404297,195.580551 136.651199,214.145462 137.868179,232.827637 
	C148.410721,232.827637 158.529037,232.827637 168.998459,232.827637 
	C171.050354,215.544006 173.086884,198.389771 176.023804,181.098709 
	C178.957016,181.098709 181.890244,181.098709 184.976242,181.098709 
	C184.976242,178.902069 184.976242,177.169785 184.976242,175.299545 
	C183.173615,175.070435 181.550400,174.864120 179.680481,174.626450 
	C182.780563,167.781738 188.283875,170.855392 192.734253,171.372833 
	C192.734253,191.801514 192.734253,212.230209 192.734253,232.785675 
	C201.436264,232.785675 209.522980,232.785675 218.036911,232.785675 
	C218.036911,215.461334 218.036911,198.345215 218.914856,181.078506 
	C221.033371,180.982925 223.151871,180.887344 224.811859,181.658585 
	C225.214645,191.444229 224.676025,201.383026 226.237244,210.980225 
	C228.679031,225.990387 240.087540,234.763428 255.436157,235.162582 
	C271.978699,235.592789 283.101837,227.866135 287.129761,212.789932 
	C288.236145,208.648926 288.510101,204.285522 289.721893,200.010635 
	C290.092499,200.015198 290.463135,200.019775 290.970306,200.885757 
	C291.338043,204.020355 291.499542,207.195618 292.108246,210.282715 
	C295.204742,225.987213 306.587067,235.137573 322.918091,235.196091 
	C339.395905,235.255142 351.005524,226.386673 353.950989,210.653915 
	C357.271667,192.917130 355.634216,175.867996 344.979553,160.516541 
	C337.680206,149.999420 330.484467,139.410385 323.179657,128.897095 
	C317.847198,121.222427 315.611115,112.751785 316.141876,103.456558 
	C316.545074,96.394897 318.985901,92.487999 323.181396,92.535759 
	C327.413818,92.583939 329.878632,96.496658 329.978058,103.588501 
	C330.058960,109.357155 329.994507,115.127838 329.994507,120.753227 
	C338.793793,120.753227 346.995972,120.753227 355.265869,120.753227 
	C355.281830,105.759697 356.851959,90.870415 347.297211,78.037811 
	C351.823242,76.149170 356.201385,73.551865 360.916199,72.567719 
	C365.801178,71.548065 371.012543,72.092224 375.758606,72.706284 
	C374.847168,79.126503 373.903442,85.542336 373.029572,91.967659 
	C368.166199,127.726257 363.316803,163.486771 358.469360,199.247528 
	C356.961365,210.372269 355.474274,221.499832 353.948456,232.842957 
	C362.571808,232.842957 370.690887,232.842957 379.209930,232.842957 
	C380.238586,222.230545 381.258545,211.707794 382.293884,201.026581 
	C388.750366,201.026581 394.854523,201.026581 401.351013,201.026581 
	C402.451721,211.694885 403.538727,222.230453 404.620270,232.712952 
	C413.304840,232.712952 421.554779,232.712952 429.918396,232.712952 
	C427.760284,214.914856 425.551758,197.425507 423.547180,179.912796 
	C422.225372,168.365295 421.196960,156.784225 420.700958,144.986313 
	C436.297180,125.214729 431.576782,91.456741 411.030182,76.021088 
	C411.280426,70.414612 406.925842,72.077782 403.438293,71.166321 
	C382.839844,60.981213 363.481842,62.769073 344.846100,76.901520 
	C324.272858,61.672962 298.178131,69.734261 292.407532,93.159424 
	C291.615936,96.372864 291.344391,99.714417 290.276550,102.998329 
	C289.906189,102.997765 289.535858,102.997200 288.991150,102.170860 
	C288.670013,99.869591 288.421234,97.555496 288.016205,95.269096 
	C285.151764,79.100449 273.568390,69.423851 257.006287,69.324203 
	C240.679214,69.225967 229.013306,78.514328 225.931808,94.535477 
	C222.136871,114.265991 225.704422,132.491470 236.993164,148.894867 
	C233.744888,148.894867 230.496597,148.894867 227.026459,148.894867 
	C227.142807,151.324203 227.225174,153.044266 227.328247,155.196518 
	C230.689529,155.196518 233.578369,155.196518 236.439377,155.196518 
	C236.439377,162.041046 236.439377,168.417770 236.439377,175.162415 
	C233.217438,175.162415 230.289780,175.162415 227.099274,175.162415 
	C227.099274,177.328720 227.099274,179.121399 226.447662,181.034531 
	C226.009796,180.993073 225.571915,180.951614 225.002579,180.070999 
	C224.927872,178.470459 224.853180,176.869904 224.775391,175.203217 
	C222.298553,175.074814 220.164459,174.964203 218.033005,173.934631 
	C218.033005,140.012451 218.033005,106.090263 218.033005,72.147629 
	C209.361069,72.147629 201.168488,72.147629 192.629364,72.147629 
	C192.629364,97.654312 192.629364,122.782883 192.148514,147.923737 
	C191.790741,148.220352 191.432968,148.516968 190.163193,148.932617 
M435.430725,147.506271 
	C436.068268,146.982147 436.759247,146.510742 437.335754,145.926361 
	C467.732574,115.113487 458.413666,63.476669 419.113770,44.913136 
	C393.040161,32.597134 359.708435,40.522514 343.294128,63.018089 
	C343.679626,63.266258 344.065094,63.514427 345.084808,63.457771 
	C359.986481,52.035511 376.671478,47.616543 395.215637,50.965275 
	C423.384918,56.052124 444.024963,80.181435 445.403107,108.765015 
	C446.078674,122.777031 441.914215,135.197739 434.448029,147.097458 
	C434.497803,147.310349 434.547607,147.523254 434.597382,147.736160 
	C434.726929,147.700974 434.967773,147.666519 434.967987,147.630463 
	C434.969543,147.394791 434.919006,147.158768 435.430725,147.506271 
M471.468018,123.944603 
	C479.220703,108.898827 481.473358,92.851128 478.435486,76.419037 
	C470.811859,35.182739 432.862610,8.935288 391.514465,16.053246 
	C376.827667,18.581535 363.860321,24.924421 353.305298,36.256847 
	C373.414703,24.408829 394.733917,20.019680 417.227631,26.457457 
	C440.086578,32.999767 456.753204,47.380272 466.013367,69.444115 
	C475.133545,91.174500 473.833374,112.755264 462.636932,134.891724 
	C467.927887,132.400604 468.813507,127.908112 471.468018,123.944603 
z"/>
<path fill="#FF0303" opacity="1.000000" stroke="none" 
	d="
M175.123413,181.235535 
	C173.086884,198.389771 171.050354,215.544006 168.998459,232.827637 
	C158.529037,232.827637 148.410721,232.827637 137.868179,232.827637 
	C136.651199,214.145462 135.404297,195.580551 134.242783,177.010330 
	C133.089905,158.578384 132.022980,140.141052 130.270874,121.684875 
	C127.446510,158.635330 124.622147,195.585800 121.781105,232.754364 
	C110.862183,232.754364 100.292183,232.754364 89.405884,232.754364 
	C84.052048,179.245163 78.718124,125.935081 73.340607,72.189232 
	C81.654449,72.189232 89.866714,72.189232 98.776443,72.189232 
	C101.669273,111.575844 104.576958,151.164810 107.484642,190.753784 
	C107.914833,190.785385 108.345032,190.816986 108.775223,190.848572 
	C111.924255,151.328125 115.073296,111.807671 118.242203,72.037758 
	C126.755714,72.037758 134.991943,72.037758 143.606857,72.037758 
	C146.403961,113.017273 149.188461,153.811890 151.972946,194.606506 
	C152.228653,194.600830 152.484360,194.595154 152.740067,194.589478 
	C156.193573,153.840790 159.647079,113.092087 163.124191,72.064804 
	C171.457626,72.064804 179.541046,72.064804 188.490280,72.064804 
	C185.383652,97.465462 182.285172,122.799576 179.068909,148.950073 
	C178.607773,152.530807 178.138489,155.286987 177.959213,158.061920 
	C177.803940,160.465012 177.977615,162.889374 177.838120,165.583435 
	C174.091095,171.514496 170.635818,177.360931 162.363571,174.958328 
	C162.363571,177.358994 162.363571,179.071075 162.363571,181.235535 
	C166.851288,181.235535 170.987350,181.235535 175.123413,181.235535 
z"/>
<path fill="#FF0202" opacity="1.000000" stroke="none" 
	d="
M403.962677,71.544289 
	C406.925842,72.077782 411.280426,70.414612 411.049133,76.858437 
	C411.492462,81.779388 411.916809,85.862991 412.234802,90.350388 
	C412.469574,92.331734 412.931152,93.894028 413.133118,95.489197 
	C415.177338,111.632690 417.179108,127.781570 419.153503,144.222321 
	C419.421875,144.749863 419.729523,144.984024 420.037170,145.218185 
	C421.196960,156.784225 422.225372,168.365295 423.547180,179.912796 
	C425.551758,197.425507 427.760284,214.914856 429.918396,232.712952 
	C421.554779,232.712952 413.304840,232.712952 404.620270,232.712952 
	C403.538727,222.230453 402.451721,211.694885 401.351013,201.026581 
	C394.854523,201.026581 388.750366,201.026581 382.293884,201.026581 
	C381.258545,211.707794 380.238586,222.230545 379.209930,232.842957 
	C370.690887,232.842957 362.571808,232.842957 353.948456,232.842957 
	C355.474274,221.499832 356.961365,210.372269 358.469360,199.247528 
	C363.316803,163.486771 368.166199,127.726257 373.029572,91.967659 
	C373.903442,85.542336 374.847168,79.126503 376.302704,72.358185 
	C385.885437,71.854820 394.924042,71.699554 403.962677,71.544289 
M386.852661,176.578384 
	C390.808594,176.578384 394.764526,176.578384 399.068726,176.578384 
	C396.690704,152.476990 394.368408,128.940399 392.046143,105.403824 
	C389.125336,127.983719 387.000000,150.510056 384.969086,173.044891 
	C384.868652,174.159332 385.590424,175.347870 386.852661,176.578384 
z"/>
<path fill="#FF0202" opacity="1.000000" stroke="none" 
	d="
M290.832062,102.996651 
	C291.344391,99.714417 291.615936,96.372864 292.407532,93.159424 
	C298.178131,69.734261 324.272858,61.672962 345.269409,77.294853 
	C345.988861,77.928467 346.285034,78.168747 346.581207,78.409027 
	C356.851959,90.870415 355.281830,105.759697 355.265869,120.753227 
	C346.995972,120.753227 338.793793,120.753227 329.994507,120.753227 
	C329.994507,115.127838 330.058960,109.357155 329.978058,103.588501 
	C329.878632,96.496658 327.413818,92.583939 323.181396,92.535759 
	C318.985901,92.487999 316.545074,96.394897 316.141876,103.456558 
	C315.611115,112.751785 317.847198,121.222427 323.179657,128.897095 
	C330.484467,139.410385 337.680206,149.999420 344.979553,160.516541 
	C355.634216,175.867996 357.271667,192.917130 353.950989,210.653915 
	C351.005524,226.386673 339.395905,235.255142 322.918091,235.196091 
	C306.587067,235.137573 295.204742,225.987213 292.108246,210.282715 
	C291.499542,207.195618 291.338043,204.020355 290.979919,199.992310 
	C291.040100,194.066940 291.090637,189.034988 291.600403,184.001999 
	C297.288422,184.000168 302.530579,184.204605 307.737274,183.865067 
	C309.172546,183.771454 310.502014,182.055328 311.892242,181.005829 
	C311.904419,180.927963 312.061554,180.915802 312.494965,180.974640 
	C315.648590,180.627243 316.187317,182.017105 316.163452,184.452133 
	C316.100159,190.919922 316.043549,197.404297 316.439484,203.854111 
	C316.691925,207.966690 318.006378,212.156006 323.238159,212.039597 
	C328.406464,211.924606 329.292023,207.701004 329.896301,203.611633 
	C330.016937,202.795441 329.927490,201.950104 330.017761,201.127274 
	C331.322815,189.230270 326.091278,179.568527 319.990906,170.278961 
	C322.118866,170.150101 323.779968,170.161926 325.432556,170.048706 
	C332.782104,169.545074 337.735352,165.297455 337.750946,159.529694 
	C337.766510,153.770096 332.818054,149.513290 325.440002,149.021408 
	C323.457947,148.889267 321.462555,148.955688 319.473297,148.932465 
	C314.337433,148.872528 309.201569,148.813446 303.939087,148.443939 
	C293.739319,134.740646 289.769318,119.592308 290.832062,102.996651 
z"/>
<path fill="#FF0202" opacity="1.000000" stroke="none" 
	d="
M237.895309,148.753998 
	C225.704422,132.491470 222.136871,114.265991 225.931808,94.535477 
	C229.013306,78.514328 240.679214,69.225967 257.006287,69.324203 
	C273.568390,69.423851 285.151764,79.100449 288.016205,95.269096 
	C288.421234,97.555496 288.670013,99.869591 289.009735,103.047836 
	C289.028320,109.537186 289.028320,115.149544 289.028320,120.766525 
	C280.386627,120.766525 272.192627,120.766525 263.526367,120.766525 
	C263.526367,113.737503 263.728455,107.081230 263.451813,100.444916 
	C263.281494,96.358894 261.588776,92.547935 256.787598,92.609238 
	C252.012436,92.670212 250.547775,96.554184 250.167862,100.592468 
	C249.292603,109.895920 250.196915,118.871056 255.706192,126.875160 
	C260.795166,134.268600 265.806427,141.715530 270.319092,149.141418 
	C259.155945,149.013962 248.525635,148.883987 237.895309,148.753998 
z"/>
<path fill="#FE0202" opacity="1.000000" stroke="none" 
	d="
M225.134048,180.910156 
	C225.571915,180.951614 226.009796,180.993073 227.233826,181.016541 
	C232.143112,181.019653 236.273056,180.901871 240.387283,181.104111 
	C243.919815,181.277756 247.434372,181.817093 250.758606,182.556335 
	C250.555252,190.661224 250.305847,198.415680 250.657883,206.142700 
	C250.812042,209.526321 253.076584,212.099564 256.873383,212.079651 
	C260.636414,212.059906 262.495819,209.595062 263.123657,206.132584 
	C263.478485,204.175980 263.675903,202.185333 263.845612,200.201599 
	C264.834808,188.639435 259.636597,179.274796 253.705963,170.275620 
	C258.320435,170.163376 262.422577,170.133759 266.524689,170.106354 
	C272.389465,170.067154 277.019348,167.879944 280.029724,162.779114 
	C282.155304,167.003998 284.054138,170.927994 285.618774,175.086304 
	C285.245209,177.696594 283.098785,181.005875 287.946350,181.654510 
	C288.380676,188.056976 288.773346,194.040573 289.166016,200.024185 
	C288.510101,204.285522 288.236145,208.648926 287.129761,212.789932 
	C283.101837,227.866135 271.978699,235.592789 255.436157,235.162582 
	C240.087540,234.763428 228.679031,225.990387 226.237244,210.980225 
	C224.676025,201.383026 225.214645,191.444229 225.017212,181.271317 
	C225.222549,180.884048 225.134048,180.910141 225.134048,180.910156 
z"/>
<path fill="#FE0000" opacity="1.000000" stroke="none" 
	d="
M192.629364,147.911453 
	C192.629364,122.782883 192.629364,97.654312 192.629364,72.147629 
	C201.168488,72.147629 209.361069,72.147629 218.033005,72.147629 
	C218.033005,106.090263 218.033005,140.012451 217.678497,174.457520 
	C211.859451,168.615814 206.394897,162.251221 200.456635,155.334900 
	C203.445618,154.927322 205.025116,154.711929 206.861649,154.461502 
	C206.773758,152.541153 206.701294,150.957794 206.600983,148.766266 
	C201.839447,148.766266 197.387634,148.766266 192.897827,148.538727 
	C192.859833,148.311172 192.629364,147.911453 192.629364,147.911453 
z"/>
<path fill="#070707" opacity="1.000000" stroke="none" 
	d="
M343.812622,62.817696 
	C359.708435,40.522514 393.040161,32.597134 419.113770,44.913136 
	C458.413666,63.476669 467.732574,115.113487 437.335754,145.926361 
	C436.759247,146.510742 436.068268,146.982147 435.190796,147.234665 
	C434.950897,146.963058 435.011444,147.010315 435.011444,147.010315 
	C441.914215,135.197739 446.078674,122.777031 445.403107,108.765015 
	C444.024963,80.181435 423.384918,56.052124 395.215637,50.965275 
	C376.671478,47.616543 359.986481,52.035511 344.629395,63.359657 
	C344.053558,63.113594 343.933105,62.965645 343.812622,62.817696 
z"/>
<path fill="#070707" opacity="1.000000" stroke="none" 
	d="
M471.291565,124.273735 
	C468.813507,127.908112 467.927887,132.400604 462.636932,134.891724 
	C473.833374,112.755264 475.133545,91.174500 466.013367,69.444115 
	C456.753204,47.380272 440.086578,32.999767 417.227631,26.457457 
	C394.733917,20.019680 373.414703,24.408829 353.305298,36.256847 
	C363.860321,24.924421 376.827667,18.581535 391.514465,16.053246 
	C432.862610,8.935288 470.811859,35.182739 478.435486,76.419037 
	C481.473358,92.851128 479.220703,108.898827 471.291565,124.273735 
z"/>
<path fill="#FEFAFA" opacity="1.000000" stroke="none" 
	d="
M285.952942,174.851990 
	C284.054138,170.927994 282.155304,167.003998 280.055664,162.408218 
	C280.737000,154.762146 276.631531,151.352280 270.851898,149.138885 
	C265.806427,141.715530 260.795166,134.268600 255.706192,126.875160 
	C250.196915,118.871056 249.292603,109.895920 250.167862,100.592468 
	C250.547775,96.554184 252.012436,92.670212 256.787598,92.609238 
	C261.588776,92.547935 263.281494,96.358894 263.451813,100.444916 
	C263.728455,107.081230 263.526367,113.737503 263.526367,120.766525 
	C272.192627,120.766525 280.386627,120.766525 289.028320,120.766525 
	C289.028320,115.149544 289.028320,109.537186 289.096924,103.460724 
	C289.535858,102.997200 289.906189,102.997765 290.554321,102.997490 
	C289.769318,119.592308 293.739319,134.740646 303.470398,148.526337 
	C297.183594,148.918777 291.238861,148.918777 285.160767,148.918777 
	C285.160767,151.086456 285.160767,152.815796 285.160767,155.036270 
	C288.280762,155.036270 291.179565,155.036270 294.088501,155.036270 
	C294.088501,161.926651 294.088501,168.319138 294.088501,174.851990 
	C291.199554,174.851990 288.576263,174.851990 285.952942,174.851990 
z"/>
<path fill="#FD0000" opacity="1.000000" stroke="none" 
	d="
M218.036911,181.229095 
	C218.036911,198.345215 218.036911,215.461334 218.036911,232.785675 
	C209.522980,232.785675 201.436264,232.785675 192.734253,232.785675 
	C192.734253,212.230209 192.734253,191.801514 193.224213,170.837463 
	C198.221344,171.183609 204.209305,167.467865 207.110672,174.719055 
	C205.238098,174.936569 203.692993,175.116028 201.860092,175.328918 
	C201.953217,177.392075 202.030273,179.099350 202.126389,181.229095 
	C207.767273,181.229095 212.902100,181.229095 218.036911,181.229095 
z"/>
<path fill="#080303" opacity="1.000000" stroke="none" 
	d="
M270.319092,149.141418 
	C276.631531,151.352280 280.737000,154.762146 279.828918,162.107330 
	C277.019348,167.879944 272.389465,170.067154 266.524689,170.106354 
	C262.422577,170.133759 258.320435,170.163376 253.322235,170.173386 
	C249.829208,170.154770 247.232254,170.154770 244.503220,170.154770 
	C244.503220,171.999985 244.503220,173.365036 244.503220,175.204483 
	C247.821823,175.204483 250.864029,175.204483 254.030991,175.204483 
	C253.635345,178.179794 255.440063,181.600967 250.956879,182.194733 
	C247.434372,181.817093 243.919815,181.277756 240.387283,181.104111 
	C236.273056,180.901871 232.143112,181.019653 227.559631,180.956329 
	C227.099274,179.121399 227.099274,177.328720 227.099274,175.162415 
	C230.289780,175.162415 233.217438,175.162415 236.439377,175.162415 
	C236.439377,168.417770 236.439377,162.041046 236.439377,155.196518 
	C233.578369,155.196518 230.689529,155.196518 227.328247,155.196518 
	C227.225174,153.044266 227.142807,151.324203 227.026459,148.894867 
	C230.496597,148.894867 233.744888,148.894867 237.444244,148.824432 
	C248.525635,148.883987 259.155945,149.013962 270.319092,149.141418 
M250.896210,164.291138 
	C256.366241,164.220474 261.872894,164.481293 267.284760,163.883774 
	C268.979919,163.696609 270.419861,161.197678 271.976624,159.756912 
	C270.524597,158.218323 269.145935,155.441223 267.608124,155.350113 
	C259.907349,154.893829 252.164886,155.141159 244.259750,155.141159 
	C244.507141,159.676208 244.511703,163.731384 250.896210,164.291138 
z"/>
<path fill="#060202" opacity="1.000000" stroke="none" 
	d="
M218.475891,181.153809 
	C212.902100,181.229095 207.767273,181.229095 202.126389,181.229095 
	C202.030273,179.099350 201.953217,177.392075 201.860092,175.328918 
	C203.692993,175.116028 205.238098,174.936569 207.110672,174.719055 
	C204.209305,167.467865 198.221344,171.183609 193.255219,170.401215 
	C188.283875,170.855392 182.780563,167.781738 179.680481,174.626450 
	C181.550400,174.864120 183.173615,175.070435 184.976242,175.299545 
	C184.976242,177.169785 184.976242,178.902069 184.976242,181.098709 
	C181.890244,181.098709 178.957016,181.098709 175.573608,181.167114 
	C170.987350,181.235535 166.851288,181.235535 162.363571,181.235535 
	C162.363571,179.071075 162.363571,177.358994 162.363571,174.958328 
	C170.635818,177.360931 174.091095,171.514496 178.160339,165.441559 
	C181.113342,161.830902 183.576340,158.641205 186.266251,155.157654 
	C183.774734,154.854721 182.039154,154.643707 180.168777,154.416306 
	C180.168777,152.417084 180.168777,150.768677 180.168777,149.120270 
	C183.500244,149.057709 186.831726,148.995163 190.924362,148.955048 
	C192.102295,148.907074 192.519073,148.836670 192.935837,148.766266 
	C197.387634,148.766266 201.839447,148.766266 206.600983,148.766266 
	C206.701294,150.957794 206.773758,152.541153 206.861649,154.461502 
	C205.025116,154.711929 203.445618,154.927322 200.456635,155.334900 
	C206.394897,162.251221 211.859451,168.615814 217.677185,174.916992 
	C220.164459,174.964203 222.298553,175.074814 224.775391,175.203217 
	C224.853180,176.869904 224.927872,178.470459 225.068314,180.490570 
	C225.134048,180.910141 225.222549,180.884048 225.246460,180.837921 
	C223.151871,180.887344 221.033371,180.982925 218.475891,181.153809 
M193.737244,165.025101 
	C195.765884,165.025101 197.794525,165.025101 200.772232,165.025101 
	C198.541443,161.831909 197.058914,159.506989 195.340958,157.371475 
	C194.810287,156.711823 193.638412,156.568039 192.254608,156.565079 
	C190.352051,159.167709 188.449493,161.770340 186.158798,164.903900 
	C188.990692,164.903900 190.929092,164.903900 193.737244,165.025101 
z"/>
<path fill="#0E0D0D" opacity="1.000000" stroke="none" 
	d="
M420.369080,145.102249 
	C419.729523,144.984024 419.421875,144.749863 419.463013,144.067902 
	C424.984009,133.716064 425.480164,123.040550 423.630676,112.462685 
	C422.162628,104.066383 419.538330,95.720360 412.341156,89.946594 
	C411.916809,85.862991 411.492462,81.779388 411.119141,77.261475 
	C431.576782,91.456741 436.297180,125.214729 420.369080,145.102249 
z"/>
<path fill="#100A0A" opacity="1.000000" stroke="none" 
	d="
M346.939209,78.223419 
	C346.285034,78.168747 345.988861,77.928467 345.561981,77.432167 
	C363.481842,62.769073 382.839844,60.981213 403.700500,71.355301 
	C394.924042,71.699554 385.885437,71.854820 376.463989,71.981232 
	C371.012543,72.092224 365.801178,71.548065 360.916199,72.567719 
	C356.201385,73.551865 351.823242,76.149170 346.939209,78.223419 
z"/>
<path fill="#F9C9C9" opacity="1.000000" stroke="none" 
	d="
M179.933350,149.043152 
	C180.168777,150.768677 180.168777,152.417084 180.168777,154.416306 
	C182.039154,154.643707 183.774734,154.854721 186.266251,155.157654 
	C183.576340,158.641205 181.113342,161.830902 178.328125,165.162460 
	C177.977615,162.889374 177.803940,160.465012 177.959213,158.061920 
	C178.138489,155.286987 178.607773,152.530807 179.076889,149.359085 
	C179.202637,148.951691 179.697906,148.966019 179.933350,149.043152 
z"/>
<path fill="#FBDFDF" opacity="1.000000" stroke="none" 
	d="
M289.443970,200.017410 
	C288.773346,194.040573 288.380676,188.056976 288.334534,181.554718 
	C289.475708,181.099930 290.270355,181.163773 291.028778,181.575531 
	C291.042114,182.616653 291.091675,183.309845 291.141205,184.003052 
	C291.090637,189.034988 291.040100,194.066940 290.911652,199.561615 
	C290.463135,200.019775 290.092499,200.015198 289.443970,200.017410 
z"/>
<path fill="#F9C9C9" opacity="1.000000" stroke="none" 
	d="
M192.897827,148.538727 
	C192.519073,148.836670 192.102295,148.907074 191.380371,148.895523 
	C191.432968,148.516968 191.790741,148.220352 192.388947,147.917603 
	C192.629364,147.911453 192.859833,148.311172 192.897827,148.538727 
z"/>
<path fill="#070707" opacity="1.000000" stroke="none" 
	d="
M434.918182,146.942963 
	C434.919006,147.158768 434.969543,147.394791 434.967987,147.630463 
	C434.967773,147.666519 434.726929,147.700974 434.597382,147.736145 
	C434.547607,147.523254 434.497803,147.310349 434.729736,147.053894 
	C435.011444,147.010315 434.950897,146.963058 434.918182,146.942963 
z"/>
<path fill="#070707" opacity="1.000000" stroke="none" 
	d="
M344.312256,63.512070 
	C344.065094,63.514427 343.679626,63.266258 343.553375,62.917892 
	C343.933105,62.965645 344.053558,63.113594 344.312256,63.512070 
z"/>
<path fill="#FFF4F4" opacity="1.000000" stroke="none" 
	d="
M386.390991,176.540131 
	C385.590424,175.347870 384.868652,174.159332 384.969086,173.044891 
	C387.000000,150.510056 389.125336,127.983719 392.046143,105.403824 
	C394.368408,128.940399 396.690704,152.476990 399.068726,176.578384 
	C394.764526,176.578384 390.808594,176.578384 386.390991,176.540131 
z"/>
<path fill="#FAF5F5" opacity="1.000000" stroke="none" 
	d="
M412.234802,90.350388 
	C419.538330,95.720360 422.162628,104.066383 423.630676,112.462685 
	C425.480164,123.040550 424.984009,133.716064 419.502289,143.774536 
	C417.179108,127.781570 415.177338,111.632690 413.133118,95.489197 
	C412.931152,93.894028 412.469574,92.331734 412.234802,90.350388 
z"/>
<path fill="#090505" opacity="1.000000" stroke="none" 
	d="
M291.065002,181.227615 
	C290.270355,181.163773 289.475708,181.099930 288.292847,181.135864 
	C283.098785,181.005875 285.245209,177.696594 285.618774,175.086304 
	C288.576263,174.851990 291.199554,174.851990 294.088501,174.851990 
	C294.088501,168.319138 294.088501,161.926651 294.088501,155.036270 
	C291.179565,155.036270 288.280762,155.036270 285.160767,155.036270 
	C285.160767,152.815796 285.160767,151.086456 285.160767,148.918777 
	C291.238861,148.918777 297.183594,148.918777 303.597015,148.836395 
	C309.201569,148.813446 314.337433,148.872528 319.473297,148.932465 
	C321.462555,148.955688 323.457947,148.889267 325.440002,149.021408 
	C332.818054,149.513290 337.766510,153.770096 337.750946,159.529694 
	C337.735352,165.297455 332.782104,169.545074 325.432556,170.048706 
	C323.779968,170.161926 322.118866,170.150101 319.563721,170.193054 
	C313.229980,170.190277 307.794220,170.190277 302.301697,170.190277 
	C302.301697,172.002548 302.301697,173.387863 302.301697,175.129089 
	C305.662201,175.129089 308.760986,175.129089 312.061554,175.129089 
	C312.061554,177.295883 312.061554,179.105850 312.061554,180.915802 
	C312.061554,180.915802 311.904419,180.927963 311.434845,180.989777 
	C304.331848,181.110275 297.698425,181.168945 291.065002,181.227615 
M315.811523,164.244034 
	C318.453491,164.232040 321.097260,164.276978 323.736938,164.193146 
	C326.796021,164.095993 329.692627,163.115128 329.688751,159.621368 
	C329.684906,156.159943 326.828979,155.045715 323.756561,155.020676 
	C318.807404,154.980316 313.856873,155.105240 308.020691,155.011795 
	C306.109406,155.011795 304.198090,155.011795 302.304138,155.011795 
	C302.304138,158.363327 302.304138,161.253387 302.304138,164.066757 
	C306.688171,164.066757 310.789124,164.066757 315.811523,164.244034 
z"/>
<path fill="#FCF7F7" opacity="1.000000" stroke="none" 
	d="
M312.494965,180.974640 
	C312.061554,179.105850 312.061554,177.295883 312.061554,175.129089 
	C308.760986,175.129089 305.662201,175.129089 302.301697,175.129089 
	C302.301697,173.387863 302.301697,172.002548 302.301697,170.190277 
	C307.794220,170.190277 313.229980,170.190277 319.092926,170.276169 
	C326.091278,179.568527 331.322815,189.230270 330.017761,201.127274 
	C329.927490,201.950104 330.016937,202.795441 329.896301,203.611633 
	C329.292023,207.701004 328.406464,211.924606 323.238159,212.039597 
	C318.006378,212.156006 316.691925,207.966690 316.439484,203.854111 
	C316.043549,197.404297 316.100159,190.919922 316.163452,184.452133 
	C316.187317,182.017105 315.648590,180.627243 312.494965,180.974640 
z"/>
<path fill="#FA0404" opacity="1.000000" stroke="none" 
	d="
M291.028778,181.575531 
	C297.698425,181.168945 304.331848,181.110275 311.422668,181.067657 
	C310.502014,182.055328 309.172546,183.771454 307.737274,183.865067 
	C302.530579,184.204605 297.288422,184.000168 291.600403,184.001999 
	C291.091675,183.309845 291.042114,182.616653 291.028778,181.575531 
z"/>
<path fill="#FCF7F7" opacity="1.000000" stroke="none" 
	d="
M250.758606,182.556335 
	C255.440063,181.600967 253.635345,178.179794 254.030991,175.204483 
	C250.864029,175.204483 247.821823,175.204483 244.503220,175.204483 
	C244.503220,173.365036 244.503220,171.999985 244.503220,170.154770 
	C247.232254,170.154770 249.829208,170.154770 252.809875,170.257004 
	C259.636597,179.274796 264.834808,188.639435 263.845612,200.201599 
	C263.675903,202.185333 263.478485,204.175980 263.123657,206.132584 
	C262.495819,209.595062 260.636414,212.059906 256.873383,212.079651 
	C253.076584,212.099564 250.812042,209.526321 250.657883,206.142700 
	C250.305847,198.415680 250.555252,190.661224 250.758606,182.556335 
z"/>
<path fill="#F60202" opacity="1.000000" stroke="none" 
	d="
M250.440155,164.286285 
	C244.511703,163.731384 244.507141,159.676208 244.259750,155.141159 
	C252.164886,155.141159 259.907349,154.893829 267.608124,155.350113 
	C269.145935,155.441223 270.524597,158.218323 271.976624,159.756927 
	C270.419861,161.197678 268.979919,163.696609 267.284760,163.883774 
	C261.872894,164.481293 256.366241,164.220474 250.440155,164.286285 
z"/>
<path fill="#ED0000" opacity="1.000000" stroke="none" 
	d="
M192.760117,156.188049 
	C193.638412,156.568039 194.810287,156.711823 195.340958,157.371475 
	C197.058914,159.506989 198.541443,161.831909 200.772232,165.025101 
	C197.794525,165.025101 195.765884,165.025101 193.320679,164.528229 
	C192.856110,161.416931 192.808105,158.802490 192.760117,156.188049 
z"/>
<path fill="#E7D4D4" opacity="1.000000" stroke="none" 
	d="
M192.507355,156.376556 
	C192.808105,158.802490 192.856110,161.416931 192.885803,164.467636 
	C190.929092,164.903900 188.990692,164.903900 186.158798,164.903900 
	C188.449493,161.770340 190.352051,159.167709 192.507355,156.376556 
z"/>
<path fill="#F50202" opacity="1.000000" stroke="none" 
	d="
M308.906921,155.160324 
	C313.856873,155.105240 318.807404,154.980316 323.756561,155.020676 
	C326.828979,155.045715 329.684906,156.159943 329.688751,159.621368 
	C329.692627,163.115128 326.796021,164.095993 323.736938,164.193146 
	C321.097260,164.276978 318.453491,164.232040 315.219238,163.846130 
	C312.720276,160.685593 310.813599,157.922958 308.906921,155.160324 
z"/>
<path fill="#F9F6F6" opacity="1.000000" stroke="none" 
	d="
M308.463806,155.086060 
	C310.813599,157.922958 312.720276,160.685593 314.758514,163.757477 
	C310.789124,164.066757 306.688171,164.066757 302.304138,164.066757 
	C302.304138,161.253387 302.304138,158.363327 302.304138,155.011795 
	C304.198090,155.011795 306.109406,155.011795 308.463806,155.086060 
z"/>
</svg>