<svg version="1.1" id="Layer_1" xmlns="http://www.w3.org/2000/svg" xmlns:xlink="http://www.w3.org/1999/xlink" x="0px" y="0px"
	 width="100%" viewBox="0 0 500 257" enable-background="new 0 0 500 257" xml:space="preserve">
<path fill="#010000" opacity="1.000000" stroke="none" 
	d="
M377.000000,258.000000 
	C251.333328,258.000000 126.166664,258.000000 1.000000,258.000000 
	C1.000000,172.333328 1.000000,86.666664 1.000000,1.000000 
	C167.666672,1.000000 334.333344,1.000000 501.000000,1.000000 
	C501.000000,86.666664 501.000000,172.333328 501.000000,258.000000 
	C459.833344,258.000000 418.666656,258.000000 377.000000,258.000000 
M190.183243,144.900986 
	C186.832230,144.961227 183.481201,145.021469 179.670959,144.981262 
	C179.670959,144.981262 179.201721,144.953339 179.188156,144.135559 
	C182.277435,118.913612 185.366714,93.691658 188.489975,68.192245 
	C179.636078,68.192245 171.448410,68.192245 163.096008,68.192245 
	C159.578049,109.815704 156.093414,151.044724 152.608795,192.273743 
	C152.439651,192.279327 152.270523,192.284912 152.101379,192.290497 
	C149.268082,150.875031 146.434769,109.459549 143.615250,68.245743 
	C134.673996,68.245743 126.456795,68.245743 118.220093,68.245743 
	C115.070984,107.743706 111.958458,146.782791 108.845932,185.821884 
	C108.373192,185.788971 107.900452,185.756073 107.427711,185.723175 
	C104.538948,146.493896 101.650185,107.264610 98.764885,68.082375 
	C89.909828,68.082375 81.810669,68.082375 73.332787,68.082375 
	C78.708344,121.826965 84.050125,175.233902 89.393440,228.656128 
	C100.425354,228.656128 110.985840,228.656128 121.796074,228.656128 
	C124.641602,191.427750 127.462357,154.523376 130.283112,117.618996 
	C130.469696,117.621330 130.656281,117.623672 130.842865,117.626007 
	C133.159332,154.623413 135.475800,191.620834 137.803207,228.792999 
	C148.391541,228.792999 158.495987,228.792999 169.038300,228.792999 
	C171.060928,211.484253 173.065643,194.328888 175.975647,177.034012 
	C178.930984,177.034012 181.886322,177.034012 185.010895,177.034012 
	C185.010895,174.885178 185.010895,173.149002 185.010895,171.291565 
	C183.200043,171.063492 181.552261,170.855957 179.679245,170.620041 
	C182.832077,163.785828 188.352859,166.864441 192.839691,167.387970 
	C192.839691,187.806000 192.839691,208.224030 192.839691,228.693924 
	C201.549606,228.693924 209.618423,228.693924 217.844742,228.693924 
	C217.844742,211.931213 217.844742,195.472260 217.994003,178.411942 
	C218.005997,177.999130 218.017990,177.586304 218.887329,177.025528 
	C220.909225,177.003799 222.931122,176.982056 224.823105,177.895752 
	C225.206894,187.496674 224.700851,197.237076 226.178940,206.666473 
	C228.511261,221.545639 239.757614,230.589691 254.549057,231.127045 
	C271.784973,231.753204 283.002899,224.176086 287.143982,208.758865 
	C288.253326,204.628738 288.521484,200.272659 289.725098,196.012817 
	C290.091278,196.015350 290.457489,196.017883 290.958771,196.883621 
	C291.402618,200.341782 291.558105,203.866577 292.339508,207.246704 
	C295.965851,222.933273 307.248138,231.398285 323.928680,231.168076 
	C340.014771,230.946091 351.194855,221.948837 354.034454,206.129639 
	C357.190552,188.547272 355.562866,171.649811 344.954498,156.480911 
	C340.379272,149.938782 335.822388,143.382782 331.347473,136.771942 
	C327.620697,131.266357 323.784637,125.812660 320.430847,120.082054 
	C315.765686,112.110596 314.957886,103.313484 317.089966,94.510742 
	C317.644073,92.222992 320.535461,89.469437 322.849548,88.880913 
	C326.350464,87.990532 328.707977,90.841087 329.265808,94.327148 
	C329.787262,97.585762 329.888458,100.926262 329.976410,104.235977 
	C330.089203,108.481552 330.003815,112.732376 330.003815,116.760811 
	C338.876709,116.760811 346.953186,116.760811 355.187775,116.760811 
	C355.282990,101.780769 356.904083,86.917831 347.280884,74.043907 
	C351.811249,72.156837 356.194122,69.563530 360.912781,68.577904 
	C365.799225,67.557228 371.011353,68.095741 375.783752,68.716263 
	C374.193481,80.074608 372.570282,91.428459 371.019257,102.792168 
	C366.477814,136.065475 361.958832,169.341873 357.445496,202.619003 
	C356.272614,211.266876 355.152527,219.921921 353.978912,228.795044 
	C362.655609,228.795044 370.759033,228.795044 379.212524,228.795044 
	C380.257965,218.113480 381.287415,207.595566 382.340424,196.836792 
	C387.326050,196.836792 391.839813,197.177490 396.277557,196.742523 
	C400.865265,196.292816 401.802399,198.311493 402.061249,202.370163 
	C402.619934,211.129242 403.703033,219.854889 404.581848,228.697845 
	C413.250946,228.697845 421.481750,228.697845 429.864899,228.697845 
	C428.813843,219.634750 427.829498,210.885300 426.776855,202.144058 
	C425.723297,193.395248 424.494843,184.666321 423.535919,175.907562 
	C422.271210,164.355301 421.194519,152.782471 420.700165,140.988205 
	C436.299500,121.232254 431.569611,87.409760 411.032776,72.026878 
	C411.218628,66.479607 406.906799,68.091301 403.375549,67.244781 
	C384.145264,56.806366 362.757111,58.978764 344.819122,72.880234 
	C322.402557,56.300823 296.207214,66.695473 291.475464,94.057205 
	C291.192780,95.691956 291.042664,97.349617 290.276306,98.998245 
	C289.906647,98.997711 289.536987,98.997177 289.005463,98.167732 
	C288.633575,95.539642 288.397278,92.883888 287.867615,90.287994 
	C284.689941,74.713692 273.229828,65.461792 257.015686,65.296638 
	C241.000229,65.133514 229.118576,74.366623 226.028534,90.026154 
	C222.110062,109.884003 225.525803,128.316605 236.999084,144.881546 
	C233.736633,144.881546 230.474167,144.881546 226.989212,144.881546 
	C227.118744,147.304825 227.211029,149.031067 227.323364,151.132812 
	C230.700150,151.132812 233.618805,151.132812 236.404297,151.132812 
	C236.404297,157.944183 236.404297,164.340942 236.404297,171.115753 
	C233.188660,171.115753 230.247498,171.115753 227.139725,171.115753 
	C227.139725,173.306610 227.139725,175.109711 226.395035,177.062210 
	C225.889282,177.052490 225.383514,177.042786 224.979233,176.145782 
	C224.979233,174.465363 224.979233,172.784943 224.979233,171.153564 
	C222.195358,171.029800 220.112930,170.937225 218.031067,169.926834 
	C218.031067,135.991928 218.031067,102.057030 218.031067,68.147064 
	C209.303024,68.147064 201.236252,68.147064 192.814270,68.147064 
	C192.814270,70.473732 192.819077,72.449303 192.813538,74.424843 
	C192.748642,97.586021 192.682175,120.747208 192.154526,143.947525 
	C191.801651,144.216461 191.448761,144.485397 190.183243,144.900986 
M435.420776,143.515564 
	C451.922913,128.459702 457.802887,109.314354 454.517365,87.902679 
	C447.517639,42.285694 394.934082,19.968328 356.888763,46.135448 
	C351.686371,49.713585 347.417053,54.648357 342.715729,58.955013 
	C343.892456,59.883106 344.282867,59.980122 344.519104,59.831699 
	C345.503601,59.213184 346.453003,58.536488 347.395020,57.853195 
	C361.745117,47.444214 377.698120,43.848892 395.087891,46.955364 
	C423.337402,52.001785 444.015900,76.118095 445.400635,104.723167 
	C446.079529,118.747383 441.929565,131.186661 434.446289,143.098679 
	C434.498474,143.311615 434.550690,143.524536 434.602875,143.737488 
	C434.732513,143.701172 434.973877,143.664276 434.973724,143.628632 
	C434.972504,143.393066 434.919373,143.157776 435.420776,143.515564 
M430.707611,27.662296 
	C464.871002,44.611069 484.085388,87.672874 463.417023,129.854736 
	C470.952454,127.438019 479.643127,103.636345 479.598267,85.538116 
	C479.516876,52.670925 458.496582,24.059589 427.222626,14.161298 
	C398.116638,4.949180 366.621033,16.201509 353.463135,32.500366 
	C378.219025,17.711428 403.703186,15.096572 430.707611,27.662296 
z"/>
<path fill="#FC0000" opacity="1.000000" stroke="none" 
	d="
M175.070358,177.173523 
	C173.065643,194.328888 171.060928,211.484253 169.038300,228.792999 
	C158.495987,228.792999 148.391541,228.792999 137.803207,228.792999 
	C135.475800,191.620834 133.159332,154.623413 130.842865,117.626007 
	C130.656281,117.623672 130.469696,117.621330 130.283112,117.618996 
	C127.462357,154.523376 124.641602,191.427750 121.796074,228.656128 
	C110.985840,228.656128 100.425354,228.656128 89.393440,228.656128 
	C84.050125,175.233902 78.708344,121.826965 73.332787,68.082375 
	C81.810669,68.082375 89.909828,68.082375 98.764885,68.082375 
	C101.650185,107.264610 104.538948,146.493896 107.427711,185.723175 
	C107.900452,185.756073 108.373192,185.788971 108.845932,185.821884 
	C111.958458,146.782791 115.070984,107.743706 118.220093,68.245743 
	C126.456795,68.245743 134.673996,68.245743 143.615250,68.245743 
	C146.434769,109.459549 149.268082,150.875031 152.101379,192.290497 
	C152.270523,192.284912 152.439651,192.279327 152.608795,192.273743 
	C156.093414,151.044724 159.578049,109.815704 163.096008,68.192245 
	C171.448410,68.192245 179.636078,68.192245 188.489975,68.192245 
	C185.366714,93.691658 182.277435,118.913612 179.078171,144.949280 
	C178.647858,150.610748 178.327530,155.458527 177.873459,160.615479 
	C174.554962,167.212265 171.194504,173.243607 162.222809,170.818710 
	C162.222809,173.129761 162.222809,174.848755 162.222809,177.173523 
	C166.596130,177.173523 170.833237,177.173523 175.070358,177.173523 
z"/>
<path fill="#FD0000" opacity="1.000000" stroke="none" 
	d="
M403.936096,67.568367 
	C406.906799,68.091301 411.218628,66.479607 411.043762,72.856827 
	C411.676819,77.716644 412.298859,81.746513 412.898621,86.241302 
	C414.982025,104.447380 417.087738,122.188530 419.128479,140.228241 
	C419.387970,140.757339 419.712494,140.987915 420.036987,141.218475 
	C421.194519,152.782471 422.271210,164.355301 423.535919,175.907562 
	C424.494843,184.666321 425.723297,193.395248 426.776855,202.144058 
	C427.829498,210.885300 428.813843,219.634750 429.864899,228.697845 
	C421.481750,228.697845 413.250946,228.697845 404.581848,228.697845 
	C403.703033,219.854889 402.619934,211.129242 402.061249,202.370163 
	C401.802399,198.311493 400.865265,196.292816 396.277557,196.742523 
	C391.839813,197.177490 387.326050,196.836792 382.340424,196.836792 
	C381.287415,207.595566 380.257965,218.113480 379.212524,228.795044 
	C370.759033,228.795044 362.655609,228.795044 353.978912,228.795044 
	C355.152527,219.921921 356.272614,211.266876 357.445496,202.619003 
	C361.958832,169.341873 366.477814,136.065475 371.019257,102.792168 
	C372.570282,91.428459 374.193481,80.074608 376.310181,68.361954 
	C385.869781,67.861221 394.902924,67.714798 403.936096,67.568367 
M393.061188,110.457268 
	C392.614594,106.937340 392.167969,103.417419 391.721375,99.897491 
	C391.584045,99.925201 391.446686,99.952911 391.309326,99.980621 
	C389.091949,124.043129 386.874542,148.105637 384.646729,172.281281 
	C389.937500,172.281281 394.324463,172.281281 399.033295,172.281281 
	C397.028992,151.714630 395.063080,131.541855 393.061188,110.457268 
z"/>
<path fill="#FD0000" opacity="1.000000" stroke="none" 
	d="
M290.830811,98.996620 
	C291.042664,97.349617 291.192780,95.691956 291.475464,94.057205 
	C296.207214,66.695473 322.402557,56.300823 345.218567,73.293381 
	C345.937866,73.957382 346.257660,74.208229 346.577484,74.459076 
	C356.904083,86.917831 355.282990,101.780769 355.187775,116.760811 
	C346.953186,116.760811 338.876709,116.760811 330.003815,116.760811 
	C330.003815,112.732376 330.089203,108.481552 329.976410,104.235977 
	C329.888458,100.926262 329.787262,97.585762 329.265808,94.327148 
	C328.707977,90.841087 326.350464,87.990532 322.849548,88.880913 
	C320.535461,89.469437 317.644073,92.222992 317.089966,94.510742 
	C314.957886,103.313484 315.765686,112.110596 320.430847,120.082054 
	C323.784637,125.812660 327.620697,131.266357 331.347473,136.771942 
	C335.822388,143.382782 340.379272,149.938782 344.954498,156.480911 
	C355.562866,171.649811 357.190552,188.547272 354.034454,206.129639 
	C351.194855,221.948837 340.014771,230.946091 323.928680,231.168076 
	C307.248138,231.398285 295.965851,222.933273 292.339508,207.246704 
	C291.558105,203.866577 291.402618,200.341782 290.960388,195.987244 
	C291.031647,189.409653 291.101257,183.728455 291.627075,178.039108 
	C298.412842,177.745163 304.742432,177.459351 311.307526,177.090805 
	C311.543030,177.008072 312.033600,176.915298 312.399902,176.968216 
	C313.503540,177.083038 314.240814,177.144943 315.100159,177.382874 
	C315.423950,177.770477 315.664001,177.920929 316.010345,178.474060 
	C316.126434,185.568893 315.942810,192.212112 316.289948,198.827499 
	C316.615479,205.030716 319.229462,208.162338 323.206604,208.109879 
	C327.151062,208.057861 329.590820,204.639389 329.960297,198.639175 
	C329.990845,198.142990 329.954498,197.640717 330.011261,197.148422 
	C331.383179,185.248489 325.990021,175.629272 320.100006,166.246399 
	C323.991974,165.731308 327.555725,165.753784 330.811523,164.763550 
	C335.133484,163.449051 337.720367,160.069824 337.706665,155.445358 
	C337.692932,150.813202 335.053802,147.603775 330.729431,146.184601 
	C328.262024,145.374832 325.559021,145.053406 322.946320,144.961441 
	C316.659515,144.740128 310.363373,144.783554 303.921997,144.422729 
	C293.761932,130.716202 289.742096,115.588936 290.830811,98.996620 
z"/>
<path fill="#FD0000" opacity="1.000000" stroke="none" 
	d="
M237.897659,144.721786 
	C225.525803,128.316605 222.110062,109.884003 226.028534,90.026154 
	C229.118576,74.366623 241.000229,65.133514 257.015686,65.296638 
	C273.229828,65.461792 284.689941,74.713692 287.867615,90.287994 
	C288.397278,92.883888 288.633575,95.539642 289.022247,99.046799 
	C289.039032,105.531876 289.039032,111.137894 289.039032,116.816193 
	C280.392303,116.816193 272.329010,116.816193 263.468842,116.816193 
	C263.468842,109.710175 263.660217,102.910843 263.395630,96.129303 
	C263.241791,92.186432 261.428528,88.623611 256.947723,88.606155 
	C252.178909,88.587570 250.569458,92.381462 250.179611,96.455162 
	C249.288940,105.762001 250.143906,114.759819 255.644165,122.783661 
	C260.726105,130.197311 265.748352,137.651901 270.265198,145.107910 
	C259.121521,144.992172 248.509598,144.856979 237.897659,144.721786 
z"/>
<path fill="#FC0000" opacity="1.000000" stroke="none" 
	d="
M224.877762,177.033066 
	C225.383514,177.042786 225.889282,177.052490 226.966431,177.011581 
	C227.537827,176.960953 227.895737,177.141647 228.234848,177.400085 
	C235.643280,177.790878 242.712616,177.923248 249.851105,178.516022 
	C249.936646,181.629913 249.868546,184.287170 249.987106,186.936066 
	C250.230713,192.378067 250.062698,197.920242 251.142853,203.200500 
	C251.542801,205.155731 255.006210,207.797241 257.010071,207.744690 
	C259.041931,207.691437 261.471191,205.003616 262.832611,202.893127 
	C263.888458,201.256317 263.646973,198.739136 263.846283,196.600616 
	C264.936157,184.906143 259.698151,175.406342 253.778229,166.242096 
	C258.445953,166.128021 262.606750,166.117783 266.767029,166.069244 
	C272.519592,166.002106 277.048035,163.797379 280.002808,158.824783 
	C282.129486,163.035019 284.038849,166.939041 285.591797,171.053711 
	C285.399048,173.550705 282.827393,177.051239 287.892029,177.595581 
	C288.341553,184.016495 288.758698,190.018402 289.175842,196.020325 
	C288.521484,200.272659 288.253326,204.628738 287.143982,208.758865 
	C283.002899,224.176086 271.784973,231.753204 254.549057,231.127045 
	C239.757614,230.589691 228.511261,221.545639 226.178940,206.666473 
	C224.700851,197.237076 225.206894,187.496674 224.888504,177.465637 
	C224.953903,177.035507 224.877762,177.033066 224.877762,177.033066 
z"/>
<path fill="#FF0101" opacity="1.000000" stroke="none" 
	d="
M192.616135,143.908386 
	C192.682175,120.747208 192.748642,97.586021 192.813538,74.424843 
	C192.819077,72.449303 192.814270,70.473732 192.814270,68.147064 
	C201.236252,68.147064 209.303024,68.147064 218.031067,68.147064 
	C218.031067,102.057030 218.031067,135.991928 217.677612,170.458527 
	C211.828506,164.571350 206.332825,158.152451 200.355392,151.170868 
	C203.225479,150.937469 204.842453,150.805969 206.592148,150.663681 
	C206.592148,148.710663 206.592148,146.989822 206.592148,144.729858 
	C201.859863,144.729858 197.400085,144.729858 192.887512,144.513336 
	C192.834717,144.296829 192.616135,143.908386 192.616135,143.908386 
z"/>
<path fill="#F8F8F8" opacity="1.000000" stroke="none" 
	d="
M435.010712,143.009659 
	C441.929565,131.186661 446.079529,118.747383 445.400635,104.723167 
	C444.015900,76.118095 423.337402,52.001785 395.087891,46.955364 
	C377.698120,43.848892 361.745117,47.444214 347.395020,57.853195 
	C346.453003,58.536488 345.503601,59.213184 344.519104,59.831699 
	C344.282867,59.980122 343.892456,59.883106 342.715729,58.955013 
	C347.417053,54.648357 351.686371,49.713585 356.888763,46.135448 
	C394.934082,19.968328 447.517639,42.285694 454.517365,87.902679 
	C457.802887,109.314354 451.922913,128.459702 435.185059,143.239014 
	C434.949371,142.962448 435.010712,143.009659 435.010712,143.009659 
z"/>
<path fill="#F8F8F8" opacity="1.000000" stroke="none" 
	d="
M430.389587,27.462723 
	C403.703186,15.096572 378.219025,17.711428 353.463135,32.500366 
	C366.621033,16.201509 398.116638,4.949180 427.222626,14.161298 
	C458.496582,24.059589 479.516876,52.670925 479.598267,85.538116 
	C479.643127,103.636345 470.952454,127.438019 463.417023,129.854736 
	C484.085388,87.672874 464.871002,44.611069 430.389587,27.462723 
z"/>
<path fill="#050101" opacity="1.000000" stroke="none" 
	d="
M285.948242,170.843079 
	C284.038849,166.939041 282.129486,163.035019 280.019501,158.435303 
	C280.867889,150.629837 276.606171,147.307343 270.796906,145.088455 
	C265.748352,137.651901 260.726105,130.197311 255.644165,122.783661 
	C250.143906,114.759819 249.288940,105.762001 250.179611,96.455162 
	C250.569458,92.381462 252.178909,88.587570 256.947723,88.606155 
	C261.428528,88.623611 263.241791,92.186432 263.395630,96.129303 
	C263.660217,102.910843 263.468842,109.710175 263.468842,116.816193 
	C272.329010,116.816193 280.392303,116.816193 289.039032,116.816193 
	C289.039032,111.137894 289.039032,105.531876 289.103180,99.461243 
	C289.536987,98.997177 289.906647,98.997711 290.553558,98.997437 
	C289.742096,115.588936 293.761932,130.716202 303.454407,144.508820 
	C297.185364,144.892395 291.234924,144.892395 285.124756,144.892395 
	C285.124756,147.052139 285.124756,148.785797 285.124756,150.996338 
	C288.220581,150.996338 291.133179,150.996338 294.052673,150.996338 
	C294.052673,157.876129 294.052673,164.276154 294.052673,170.843079 
	C291.190857,170.843079 288.569550,170.843079 285.948242,170.843079 
z"/>
<path fill="#FE0101" opacity="1.000000" stroke="none" 
	d="
M217.844742,179.013290 
	C217.844742,195.472260 217.844742,211.931213 217.844742,228.693924 
	C209.618423,228.693924 201.549606,228.693924 192.839691,228.693924 
	C192.839691,208.224030 192.839691,187.806000 193.321503,166.847351 
	C196.295135,166.294693 198.886292,165.851913 201.249573,166.397034 
	C203.424240,166.898682 205.353775,168.462936 207.391296,169.559097 
	C207.128082,169.983826 206.864853,170.408539 206.601639,170.833267 
	C205.032150,171.012695 203.462646,171.192123 201.272888,171.442474 
	C201.937592,173.656982 202.465179,175.414658 203.106491,177.551270 
	C208.095062,178.291229 212.969910,178.652267 217.844742,179.013290 
z"/>
<path fill="#FCF8F8" opacity="1.000000" stroke="none" 
	d="
M270.265198,145.107910 
	C276.606171,147.307343 280.867889,150.629837 279.802246,158.129089 
	C277.048035,163.797379 272.519592,166.002106 266.767029,166.069244 
	C262.606750,166.117783 258.445953,166.128021 253.394806,166.146133 
	C249.893433,166.136917 247.282654,166.136917 244.532990,166.136917 
	C244.532990,167.984589 244.532990,169.353088 244.532990,171.098816 
	C247.912445,171.098816 251.010391,171.098816 254.113281,171.098816 
	C254.113281,173.231644 254.113281,174.971542 254.113281,176.810410 
	C252.555923,176.945480 251.257278,177.058105 249.498627,177.099258 
	C241.990997,177.065750 234.943359,177.103699 227.895737,177.141647 
	C227.895737,177.141647 227.537827,176.960953 227.338776,176.936874 
	C227.139725,175.109711 227.139725,173.306610 227.139725,171.115753 
	C230.247498,171.115753 233.188660,171.115753 236.404297,171.115753 
	C236.404297,164.340942 236.404297,157.944183 236.404297,151.132812 
	C233.618805,151.132812 230.700150,151.132812 227.323364,151.132812 
	C227.211029,149.031067 227.118744,147.304825 226.989212,144.881546 
	C230.474167,144.881546 233.736633,144.881546 237.448364,144.801666 
	C248.509598,144.856979 259.121521,144.992172 270.265198,145.107910 
M244.257355,153.243683 
	C245.493042,155.560898 246.562515,159.749435 247.992722,159.876465 
	C254.750443,160.476715 261.619812,160.153473 268.416351,159.682709 
	C269.675446,159.595490 271.275024,157.483673 271.784271,155.988449 
	C272.115173,155.016815 270.778046,152.360184 270.149017,152.347137 
	C261.527618,152.168121 252.899368,152.318314 244.257355,153.243683 
z"/>
<path fill="#FCF9F9" opacity="1.000000" stroke="none" 
	d="
M202.992752,177.172318 
	C202.465179,175.414658 201.937592,173.656982 201.272888,171.442474 
	C203.462646,171.192123 205.032150,171.012695 206.601639,170.833267 
	C206.864853,170.408539 207.128082,169.983826 207.391296,169.559097 
	C205.353775,168.462936 203.424240,166.898682 201.249573,166.397034 
	C198.886292,165.851913 196.295135,166.294693 193.350601,166.411926 
	C188.352859,166.864441 182.832077,163.785828 179.679245,170.620041 
	C181.552261,170.855957 183.200043,171.063492 185.010895,171.291565 
	C185.010895,173.149002 185.010895,174.885178 185.010895,177.034012 
	C181.886322,177.034012 178.930984,177.034012 175.523010,177.103760 
	C170.833237,177.173523 166.596130,177.173523 162.222809,177.173523 
	C162.222809,174.848755 162.222809,173.129761 162.222809,170.818710 
	C171.194504,173.243607 174.554962,167.212265 178.214920,160.511047 
	C181.117966,157.246353 183.545792,154.395279 186.374725,151.073181 
	C183.719208,150.886719 182.116821,150.774216 180.130188,150.634720 
	C180.130188,148.645599 180.130188,146.863663 180.130188,145.081711 
	C183.481201,145.021469 186.832230,144.961227 190.941650,144.912903 
	C192.113464,144.859833 192.526886,144.794846 192.940308,144.729858 
	C197.400085,144.729858 201.859863,144.729858 206.592148,144.729858 
	C206.592148,146.989822 206.592148,148.710663 206.592148,150.663681 
	C204.842453,150.805969 203.225479,150.937469 200.355392,151.170868 
	C206.332825,158.152451 211.828506,164.571350 217.677338,170.917450 
	C220.112930,170.937225 222.195358,171.029800 224.979233,171.153564 
	C224.979233,172.784943 224.979233,174.465363 224.928497,176.589417 
	C224.877762,177.033066 224.953903,177.035507 224.953461,176.997925 
	C222.931122,176.982056 220.909225,177.003799 217.995804,177.026596 
	C212.400436,177.075882 207.696594,177.124100 202.992752,177.172318 
M192.244064,152.526093 
	C190.384155,155.140839 188.524246,157.755585 186.312943,160.864349 
	C189.012070,160.864349 190.925400,160.864349 193.715073,161.007629 
	C195.755859,161.007629 197.796646,161.007629 200.792587,161.007629 
	C198.177994,157.372208 196.134491,154.508667 194.024490,151.695023 
	C193.955170,151.602570 193.209442,152.017365 192.244064,152.526093 
z"/>
<path fill="#F2F1F1" opacity="1.000000" stroke="none" 
	d="
M412.920929,85.776375 
	C412.298859,81.746513 411.676819,77.716644 411.111511,73.256882 
	C431.569611,87.409760 436.299500,121.232254 420.368591,141.103333 
	C419.712494,140.987915 419.387970,140.757339 419.440399,140.078781 
	C427.760345,120.367783 426.124420,102.331429 412.920929,85.776375 
z"/>
<path fill="#F5EFEF" opacity="1.000000" stroke="none" 
	d="
M346.929199,74.251495 
	C346.257660,74.208229 345.937866,73.957382 345.512939,73.419556 
	C362.757111,58.978764 384.145264,56.806366 403.655823,67.406570 
	C394.902924,67.714798 385.869781,67.861221 376.458801,67.979950 
	C371.011353,68.095741 365.799225,67.557228 360.912781,68.577904 
	C356.194122,69.563530 351.811249,72.156837 346.929199,74.251495 
z"/>
<path fill="#360505" opacity="1.000000" stroke="none" 
	d="
M179.900574,145.031494 
	C180.130188,146.863663 180.130188,148.645599 180.130188,150.634720 
	C182.116821,150.774216 183.719208,150.886719 186.374725,151.073181 
	C183.545792,154.395279 181.117966,157.246353 178.348679,160.201859 
	C178.327530,155.458527 178.647858,150.610748 179.084961,145.358154 
	C179.201721,144.953339 179.670959,144.981262 179.900574,145.031494 
z"/>
<path fill="#190000" opacity="1.000000" stroke="none" 
	d="
M289.450470,196.016571 
	C288.758698,190.018402 288.341553,184.016495 288.278595,177.513504 
	C289.417328,177.067368 290.201843,177.122284 291.006042,177.400330 
	C291.025726,177.623459 291.170898,178.047241 291.170898,178.047241 
	C291.101257,183.728455 291.031647,189.409653 290.892853,195.555634 
	C290.457489,196.017883 290.091278,196.015350 289.450470,196.016571 
z"/>
<path fill="#ED0000" opacity="1.000000" stroke="none" 
	d="
M203.106491,177.551270 
	C207.696594,177.124100 212.400436,177.075882 217.567139,177.100586 
	C218.017990,177.586304 218.005997,177.999130 217.919373,178.712616 
	C212.969910,178.652267 208.095062,178.291229 203.106491,177.551270 
z"/>
<path fill="#360505" opacity="1.000000" stroke="none" 
	d="
M192.887512,144.513336 
	C192.526886,144.794846 192.113464,144.859833 191.397964,144.839569 
	C191.448761,144.485397 191.801651,144.216461 192.385330,143.927948 
	C192.616135,143.908386 192.834717,144.296829 192.887512,144.513336 
z"/>
<path fill="#F8F8F8" opacity="1.000000" stroke="none" 
	d="
M434.916260,142.942413 
	C434.919373,143.157776 434.972504,143.393066 434.973724,143.628632 
	C434.973877,143.664276 434.732513,143.701172 434.602875,143.737488 
	C434.550690,143.524536 434.498474,143.311615 434.728516,143.054169 
	C435.010712,143.009659 434.949371,142.962448 434.916260,142.942413 
z"/>
<path fill="#0B0000" opacity="1.000000" stroke="none" 
	d="
M393.079163,110.913177 
	C395.063080,131.541855 397.028992,151.714630 399.033295,172.281281 
	C394.324463,172.281281 389.937500,172.281281 384.646729,172.281281 
	C386.874542,148.105637 389.091949,124.043129 391.309326,99.980621 
	C391.446686,99.952911 391.584045,99.925201 391.721375,99.897491 
	C392.167969,103.417419 392.614594,106.937340 393.079163,110.913177 
z"/>
<path fill="#0A0404" opacity="1.000000" stroke="none" 
	d="
M412.898621,86.241302 
	C426.124420,102.331429 427.760345,120.367783 419.505371,139.780243 
	C417.087738,122.188530 414.982025,104.447380 412.898621,86.241302 
z"/>
<path fill="#FAF7F7" opacity="1.000000" stroke="none" 
	d="
M290.986389,177.177216 
	C290.201843,177.122284 289.417328,177.067368 288.246216,177.094513 
	C282.827393,177.051239 285.399048,173.550705 285.591797,171.053711 
	C288.569550,170.843079 291.190857,170.843079 294.052673,170.843079 
	C294.052673,164.276154 294.052673,157.876129 294.052673,150.996338 
	C291.133179,150.996338 288.220581,150.996338 285.124756,150.996338 
	C285.124756,148.785797 285.124756,147.052139 285.124756,144.892395 
	C291.234924,144.892395 297.185364,144.892395 303.603394,144.806290 
	C310.363373,144.783554 316.659515,144.740128 322.946320,144.961441 
	C325.559021,145.053406 328.262024,145.374832 330.729431,146.184601 
	C335.053802,147.603775 337.692932,150.813202 337.706665,155.445358 
	C337.720367,160.069824 335.133484,163.449051 330.811523,164.763550 
	C327.555725,165.753784 323.991974,165.731308 319.668335,166.162247 
	C313.230347,166.164886 307.689270,166.164886 301.888580,166.164886 
	C302.071686,168.157272 302.198547,169.537598 302.350281,171.188370 
	C305.795776,171.188370 308.880920,171.188370 312.033600,171.188370 
	C312.033600,173.302963 312.033600,175.109131 312.033600,176.915298 
	C312.033600,176.915298 311.543030,177.008072 310.834595,177.020538 
	C303.746216,177.081070 297.366302,177.129150 290.986389,177.177216 
M308.057831,150.970886 
	C306.147522,150.970886 304.237244,150.970886 302.295349,150.970886 
	C302.295349,154.279205 302.295349,157.151642 302.295349,159.998154 
	C306.652618,159.998154 310.735260,159.998154 315.740906,160.209045 
	C318.382111,160.197021 321.024109,160.221588 323.664307,160.163452 
	C326.743347,160.095688 329.613617,159.088486 329.671692,155.642548 
	C329.730255,152.167130 326.850006,151.046982 323.794067,151.007751 
	C318.847076,150.944260 313.897583,151.073227 308.057831,150.970886 
z"/>
<path fill="#070202" opacity="1.000000" stroke="none" 
	d="
M312.399902,176.968216 
	C312.033600,175.109131 312.033600,173.302963 312.033600,171.188370 
	C308.880920,171.188370 305.795776,171.188370 302.350281,171.188370 
	C302.198547,169.537598 302.071686,168.157272 301.888580,166.164886 
	C307.689270,166.164886 313.230347,166.164886 319.203064,166.249039 
	C325.990021,175.629272 331.383179,185.248489 330.011261,197.148422 
	C329.954498,197.640717 329.990845,198.142990 329.960297,198.639175 
	C329.590820,204.639389 327.151062,208.057861 323.206604,208.109879 
	C319.229462,208.162338 316.615479,205.030716 316.289948,198.827499 
	C315.942810,192.212112 316.126434,185.568893 316.003357,178.206131 
	C315.611603,177.385254 315.294861,177.296051 314.978119,177.206848 
	C314.240814,177.144943 313.503540,177.083038 312.399902,176.968216 
z"/>
<path fill="#CB0000" opacity="1.000000" stroke="none" 
	d="
M291.006042,177.400330 
	C297.366302,177.129150 303.746216,177.081070 310.599060,177.103271 
	C304.742432,177.459351 298.412842,177.745163 291.627075,178.039108 
	C291.170898,178.047241 291.025726,177.623459 291.006042,177.400330 
z"/>
<path fill="#CB0000" opacity="1.000000" stroke="none" 
	d="
M315.100159,177.382874 
	C315.294861,177.296051 315.611603,177.385254 315.935364,177.742371 
	C315.664001,177.920929 315.423950,177.770477 315.100159,177.382874 
z"/>
<path fill="#080303" opacity="1.000000" stroke="none" 
	d="
M249.958649,177.170731 
	C251.257278,177.058105 252.555923,176.945480 254.113281,176.810410 
	C254.113281,174.971542 254.113281,173.231644 254.113281,171.098816 
	C251.010391,171.098816 247.912445,171.098816 244.532990,171.098816 
	C244.532990,169.353088 244.532990,167.984589 244.532990,166.136917 
	C247.282654,166.136917 249.893433,166.136917 252.887634,166.232880 
	C259.698151,175.406342 264.936157,184.906143 263.846283,196.600616 
	C263.646973,198.739136 263.888458,201.256317 262.832611,202.893127 
	C261.471191,205.003616 259.041931,207.691437 257.010071,207.744690 
	C255.006210,207.797241 251.542801,205.155731 251.142853,203.200500 
	C250.062698,197.920242 250.230713,192.378067 249.987106,186.936066 
	C249.868546,184.287170 249.936646,181.629913 249.922913,178.300323 
	C249.925583,177.624191 249.958649,177.170731 249.958649,177.170731 
z"/>
<path fill="#C90000" opacity="1.000000" stroke="none" 
	d="
M249.498627,177.099258 
	C249.958649,177.170731 249.925583,177.624191 249.853760,177.839905 
	C242.712616,177.923248 235.643280,177.790878 228.234848,177.400085 
	C234.943359,177.103699 241.990997,177.065750 249.498627,177.099258 
z"/>
<path fill="#F70404" opacity="1.000000" stroke="none" 
	d="
M244.265076,152.815643 
	C252.899368,152.318314 261.527618,152.168121 270.149017,152.347137 
	C270.778046,152.360184 272.115173,155.016815 271.784271,155.988449 
	C271.275024,157.483673 269.675446,159.595490 268.416351,159.682709 
	C261.619812,160.153473 254.750443,160.476715 247.992722,159.876465 
	C246.562515,159.749435 245.493042,155.560898 244.265076,152.815643 
z"/>
<path fill="#F70909" opacity="1.000000" stroke="none" 
	d="
M192.779037,152.195724 
	C193.209442,152.017365 193.955170,151.602570 194.024490,151.695023 
	C196.134491,154.508667 198.177994,157.372208 200.792587,161.007629 
	C197.796646,161.007629 195.755859,161.007629 193.289642,160.500244 
	C192.835815,157.393814 192.807419,154.794769 192.779037,152.195724 
z"/>
<path fill="#1E0A0A" opacity="1.000000" stroke="none" 
	d="
M192.511551,152.360901 
	C192.807419,154.794769 192.835815,157.393814 192.851471,160.428604 
	C190.925400,160.864349 189.012070,160.864349 186.312943,160.864349 
	C188.524246,157.755585 190.384155,155.140839 192.511551,152.360901 
z"/>
<path fill="#F60404" opacity="1.000000" stroke="none" 
	d="
M308.949158,151.120926 
	C313.897583,151.073227 318.847076,150.944260 323.794067,151.007751 
	C326.850006,151.046982 329.730255,152.167130 329.671692,155.642548 
	C329.613617,159.088486 326.743347,160.095688 323.664307,160.163452 
	C321.024109,160.221588 318.382111,160.197021 315.143555,159.807129 
	C312.680511,156.643768 310.814850,153.882355 308.949158,151.120926 
z"/>
<path fill="#040101" opacity="1.000000" stroke="none" 
	d="
M308.503479,151.045898 
	C310.814850,153.882355 312.680511,156.643768 314.682068,159.701675 
	C310.735260,159.998154 306.652618,159.998154 302.295349,159.998154 
	C302.295349,157.151642 302.295349,154.279205 302.295349,150.970886 
	C304.237244,150.970886 306.147522,150.970886 308.503479,151.045898 
z"/>
</svg>