<svg version="1.1" id="Layer_1" xmlns="http://www.w3.org/2000/svg" xmlns:xlink="http://www.w3.org/1999/xlink" x="0px" y="0px"
	 width="100%" viewBox="0 0 500 130" enable-background="new 0 0 500 130" xml:space="preserve">
<path fill="#010000" opacity="1.000000" stroke="none" 
	d="
M355.000000,131.000000 
	C236.666718,131.000000 118.833443,131.000000 1.000126,131.000000 
	C1.000084,87.666740 1.000084,44.333488 1.000042,1.000173 
	C167.666519,1.000115 334.333038,1.000115 500.999634,1.000058 
	C500.999756,44.333157 500.999756,87.666313 500.999878,130.999725 
	C452.500000,131.000000 404.000000,131.000000 355.000000,131.000000 
M327.471832,87.806946 
	C327.813904,87.630035 327.894562,87.371552 327.865540,86.101707 
	C327.759827,76.324112 327.654083,66.546516 328.510620,56.746506 
	C329.217163,58.453499 330.451752,60.134701 330.536621,61.872063 
	C330.860596,68.503914 330.625885,75.163902 330.979126,81.793175 
	C331.180481,85.572487 333.654755,87.941010 337.480164,88.047188 
	C339.220520,88.095505 340.991425,87.042839 343.591675,86.224083 
	C346.020569,88.721725 350.166962,90.126106 354.655243,87.495163 
	C358.878967,85.019333 359.203552,80.568375 358.163605,76.439369 
	C357.473267,73.698425 355.521301,71.230072 353.919159,68.780251 
	C352.899719,67.221359 351.486694,65.919830 349.525879,63.672943 
	C353.196808,63.672943 355.594971,63.672943 358.214600,63.672943 
	C358.798462,59.070042 358.826752,54.984108 354.605804,52.397720 
	C350.785767,50.056999 346.659180,51.134506 342.783783,54.772938 
	C341.211243,53.390038 339.720123,52.078732 337.915253,50.491535 
	C337.823883,49.144196 337.691254,47.188705 337.558624,45.233215 
	C337.108124,44.882008 336.657623,44.530796 336.207092,44.179585 
	C334.874634,45.457130 333.407562,46.623589 332.240479,48.037647 
	C330.383026,50.288116 328.725494,52.703617 326.926880,54.341084 
	C325.488495,53.347050 323.620056,51.206402 322.685883,51.556782 
	C318.563416,53.102985 314.493134,52.994549 310.359253,51.735264 
	C310.359253,64.237648 310.359253,75.989204 310.359253,87.616203 
	C312.749908,87.616203 314.802399,87.616203 316.825592,87.616203 
	C317.740936,77.436867 316.018402,67.444702 317.794678,57.727776 
	C318.649658,57.731071 319.504608,57.734364 320.359589,57.737656 
	C320.359589,67.769585 320.359589,77.801521 320.359589,87.791580 
	C323.381226,87.791580 325.199036,87.791580 327.471832,87.806946 
M132.259842,59.709377 
	C130.350876,51.466423 129.952042,51.258057 120.912140,53.185390 
	C120.315094,53.312683 119.583954,52.631039 118.882019,52.483692 
	C117.399887,52.172569 115.895775,51.966175 114.378815,51.713169 
	C114.378815,67.718414 114.378815,83.077843 114.378815,98.546021 
	C116.657532,98.546021 118.579376,98.546021 120.908524,98.546021 
	C120.908524,94.729851 120.908524,91.143707 120.908524,87.451637 
	C129.106339,89.684319 130.153961,89.031219 132.008728,81.009628 
	C132.092392,80.647797 132.639297,80.393074 133.014709,80.837440 
	C133.544266,85.428802 136.101486,88.193230 140.678436,88.646790 
	C145.874237,89.161674 148.915314,86.260971 150.451767,81.265923 
	C153.060776,87.383759 156.238495,89.463577 161.121475,88.511101 
	C165.864059,87.585999 167.988968,84.614761 168.062546,78.525742 
	C168.132935,72.700226 168.146942,66.871956 168.051071,61.047108 
	C167.957611,55.369801 165.757034,52.447296 161.158600,51.538139 
	C156.301712,50.577888 153.161728,52.557034 150.491104,58.074932 
	C150.491104,58.074932 150.020996,57.983372 149.843018,57.298317 
	C148.268112,52.713116 144.880432,50.859688 140.282196,51.457035 
	C135.496338,52.078751 133.239166,55.216103 132.259842,59.709377 
M291.053192,55.915169 
	C290.941101,54.662533 290.829041,53.409893 290.723022,52.224838 
	C288.594635,52.224838 286.815338,52.224838 284.867279,52.224838 
	C283.967072,58.732944 283.093506,65.048439 282.219940,71.363937 
	C281.873810,71.310402 281.527679,71.256874 281.181549,71.203339 
	C280.420746,64.858330 279.659973,58.513317 278.899597,52.171852 
	C276.580414,52.171852 274.780701,52.171852 272.494812,52.138752 
	C272.125519,52.327427 272.040833,52.603428 272.169922,53.787964 
	C273.669861,65.112541 275.169830,76.437119 276.660614,87.692657 
	C280.081879,87.692657 282.992004,87.692657 285.983704,87.692657 
	C287.407928,78.546814 288.785553,69.700127 290.163177,60.853447 
	C290.954773,66.953850 290.971741,72.939598 290.948730,78.925194 
	C290.933685,82.845482 291.823853,86.775352 295.901459,87.745247 
	C298.802612,88.435310 302.685883,88.089546 305.191345,86.612480 
	C308.788818,84.491631 308.789734,80.326027 307.858276,76.515396 
	C305.632599,76.515396 303.700806,76.515396 301.833069,76.515396 
	C301.272217,78.706184 300.787994,80.597626 300.303772,82.489067 
	C299.783325,82.430771 299.262909,82.372467 298.742462,82.314171 
	C298.742462,79.118958 298.742462,75.923752 298.742462,72.236664 
	C301.754517,72.236664 304.850098,72.236664 308.155670,72.236664 
	C308.155670,67.490807 308.330933,63.198746 308.105835,58.927792 
	C307.885437,54.746143 305.427704,52.122128 301.297638,51.530247 
	C297.244751,50.949425 293.651703,51.773407 291.671661,56.506134 
	C291.671661,56.506134 291.354584,56.830498 291.053192,55.915169 
M191.466751,81.344284 
	C191.466751,83.454964 191.466751,85.565643 191.466751,87.668015 
	C194.160904,87.668015 196.221222,87.668015 198.655487,87.668015 
	C198.655487,78.033371 198.874512,68.732849 198.511246,59.455128 
	C198.412628,56.936199 197.192276,53.363430 195.333344,52.310337 
	C193.351013,51.187340 190.002579,52.475842 187.250534,52.711555 
	C185.779388,52.897697 183.734482,51.072536 182.626038,51.527729 
	C178.500397,53.222012 174.462845,52.884201 170.268417,51.536629 
	C170.268417,64.051163 170.268417,75.793648 170.268417,87.728027 
	C172.568359,87.728027 174.616180,87.728027 177.060577,87.728027 
	C177.060577,82.325249 176.818970,77.185181 177.130798,72.078903 
	C177.423080,67.292847 175.617935,62.114822 178.496231,57.708759 
	C179.167358,57.718925 179.838470,57.729092 180.509583,57.739254 
	C180.509583,67.795616 180.509583,77.851982 180.509583,87.717056 
	C183.623474,87.717056 185.553879,87.717056 187.909714,87.717056 
	C187.909714,82.307205 187.909714,77.183479 187.909714,72.059753 
	C187.909714,59.832394 187.909714,59.832394 191.467300,56.858112 
	C191.467300,65.393166 191.467300,72.886093 191.466751,81.344284 
M92.192360,62.499107 
	C92.318710,68.485115 92.071709,74.509415 92.680412,80.445961 
	C93.246193,85.963844 97.060539,88.885742 102.129082,88.755661 
	C107.201752,88.625481 110.801399,85.465927 111.083153,79.922684 
	C111.496887,71.782639 111.373016,63.614487 111.442429,55.458000 
	C111.481705,50.841774 111.449501,46.224934 111.449501,41.496155 
	C108.680664,41.496155 106.594177,41.496155 104.006035,41.496155 
	C104.006035,43.396423 104.006142,45.019451 104.006020,46.642479 
	C104.005249,56.634792 104.067314,66.627869 103.946175,76.618729 
	C103.924149,78.435699 103.153259,80.243599 102.728073,82.055695 
	C101.842491,81.985779 100.956917,81.915863 100.071342,81.845947 
	C99.417671,68.477028 100.110435,55.026794 99.690514,41.641102 
	C96.908546,41.641102 94.711975,41.641102 92.192490,41.641102 
	C92.192490,48.544441 92.192490,55.022022 92.192360,62.499107 
M240.234955,52.593445 
	C234.257507,50.174297 230.544662,52.373978 230.234528,58.913029 
	C229.951233,64.886147 230.112122,70.882591 230.152313,76.868240 
	C230.208969,85.307770 232.961700,87.309990 241.301758,84.495338 
	C240.891434,87.284981 240.518753,89.818695 240.146072,92.352409 
	C239.613129,92.482857 239.080185,92.613312 238.547241,92.743759 
	C237.781891,87.191628 234.411743,87.834763 230.895493,88.570641 
	C230.833710,95.147995 233.384476,98.380188 238.703339,98.727974 
	C243.596298,99.047920 247.699783,95.976601 247.814682,90.869415 
	C248.105194,77.954552 247.911041,65.028786 247.911041,51.441128 
	C245.231079,52.054241 243.057724,52.551453 240.234955,52.593445 
M217.346039,69.515129 
	C217.903778,65.598862 215.961243,61.186207 218.898727,57.742397 
	C219.604233,57.759422 220.309753,57.776443 221.015259,57.793468 
	C221.015259,62.618961 221.015274,67.444458 221.015274,72.269951 
	C221.015274,77.379852 221.015259,82.489746 221.015259,87.704941 
	C223.598541,87.704941 225.647247,87.704941 228.048233,87.704941 
	C228.048233,78.447617 228.072418,69.495544 228.041550,60.543659 
	C228.009583,51.276337 224.555634,49.292503 217.352722,53.345226 
	C214.706223,52.593861 212.746735,52.037548 210.500305,51.399769 
	C210.500305,64.158890 210.500305,75.892113 210.500305,87.717331 
	C212.867264,87.717331 214.936523,87.717331 217.345398,87.717331 
	C217.345398,81.785507 217.345398,76.147179 217.346039,69.515129 
M270.707794,48.356518 
	C271.521759,46.260937 272.335724,44.165359 273.322632,41.624580 
	C267.394928,41.624580 262.859375,41.624580 258.417847,41.624580 
	C258.417847,57.270603 258.417847,72.493156 258.417847,87.735107 
	C263.356873,87.735107 267.939667,87.735107 272.588470,87.735107 
	C272.588470,85.387024 272.588470,83.338005 272.588470,81.211334 
	C270.161987,81.012634 268.070801,80.841393 266.074951,80.677956 
	C266.074951,76.283386 266.074951,72.251717 266.074951,68.294449 
	C268.277893,68.050766 270.026245,67.857376 271.661194,67.676521 
	C271.661194,65.294235 271.661194,63.360706 271.661194,61.192142 
	C269.659576,61.034527 267.896820,60.895725 265.629425,60.717186 
	C265.629425,57.848763 265.802917,55.219299 265.585693,52.622517 
	C265.311707,49.346714 266.586670,47.958370 270.707794,48.356518 
M65.654907,56.500172 
	C65.654907,44.749130 65.654907,32.998089 65.654907,21.081787 
	C63.822491,21.081787 62.430592,21.081787 61.179794,21.081787 
	C61.179794,49.912308 61.179794,78.440369 61.179794,107.328033 
	C62.863728,107.134186 64.241524,106.975571 65.654892,106.812866 
	C65.654892,90.086365 65.654892,73.793274 65.654907,56.500172 
M200.996841,86.186501 
	C203.086990,86.968269 205.177155,87.750031 207.981079,88.798767 
	C207.981079,81.613762 207.981094,75.817192 207.981094,70.020615 
	C207.981094,64.088181 207.981079,58.155746 207.981079,52.213974 
	C205.363129,52.213974 203.423004,52.213974 200.978958,52.213974 
	C200.978958,63.359150 200.978958,74.299484 200.996841,86.186501 
M392.012512,82.431068 
	C389.777863,79.707649 387.160797,79.400551 385.094116,82.216370 
	C384.302948,83.294296 384.485535,85.833267 385.251038,87.071968 
	C385.867096,88.068802 388.836761,88.925613 389.349487,88.417931 
	C390.722351,87.058502 391.336121,84.932487 392.012512,82.431068 
M373.583923,81.118088 
	C371.555084,81.563576 369.316498,81.650742 367.611145,82.648895 
	C367.014221,82.998291 367.152100,86.166092 367.993774,87.008865 
	C369.012848,88.029274 371.428955,88.702324 372.719879,88.196625 
	C375.923370,86.941696 375.756744,84.301620 373.583923,81.118088 
M407.772736,80.834236 
	C405.856842,81.572136 403.586639,81.931664 402.197632,83.232262 
	C401.634033,83.760010 402.509277,87.001854 403.606689,87.793907 
	C404.696869,88.580772 408.263428,88.155373 408.363251,87.718109 
	C408.837830,85.639145 408.500061,83.374756 407.772736,80.834236 
M208.327286,43.758476 
	C206.497055,42.859188 204.727081,41.616711 202.798416,41.278118 
	C202.248428,41.181564 200.394424,43.907188 200.647110,44.984955 
	C200.978775,46.399601 203.385895,48.692669 203.882355,48.457619 
	C205.644257,47.623489 206.973465,45.875473 208.327286,43.758476 
z"/>
<path fill="#F70000" opacity="1.000000" stroke="none" 
	d="
M272.980957,52.171852 
	C274.780701,52.171852 276.580414,52.171852 278.899597,52.171852 
	C279.659973,58.513317 280.420746,64.858330 281.181549,71.203339 
	C281.527679,71.256874 281.873810,71.310402 282.219940,71.363937 
	C283.093506,65.048439 283.967072,58.732944 284.867279,52.224838 
	C286.815338,52.224838 288.594635,52.224838 290.723022,52.224838 
	C290.829041,53.409893 290.941101,54.662533 291.294434,56.308491 
	C291.752014,56.601166 291.916626,56.443012 292.029480,56.227352 
	C293.651703,51.773407 297.244751,50.949425 301.297638,51.530247 
	C305.427704,52.122128 307.885437,54.746143 308.105835,58.927792 
	C308.330933,63.198746 308.155670,67.490807 308.155670,72.236664 
	C304.850098,72.236664 301.754517,72.236664 298.742462,72.236664 
	C298.742462,75.923752 298.742462,79.118958 298.742462,82.314171 
	C299.262909,82.372467 299.783325,82.430771 300.303772,82.489067 
	C300.787994,80.597626 301.272217,78.706184 301.833069,76.515396 
	C303.700806,76.515396 305.632599,76.515396 307.858276,76.515396 
	C308.789734,80.326027 308.788818,84.491631 305.191345,86.612480 
	C302.685883,88.089546 298.802612,88.435310 295.901459,87.745247 
	C291.823853,86.775352 290.933685,82.845482 290.948730,78.925194 
	C290.971741,72.939598 290.954773,66.953850 290.163177,60.853447 
	C288.785553,69.700127 287.407928,78.546814 285.983704,87.692657 
	C282.992004,87.692657 280.081879,87.692657 276.660614,87.692657 
	C275.169830,76.437119 273.669861,65.112541 272.360229,53.276741 
	C272.741913,52.602345 272.885376,52.404457 272.980957,52.171852 
M300.998871,58.760960 
	C300.805542,58.502270 300.589172,58.003841 300.422241,58.019882 
	C295.980286,58.446659 298.543762,61.883926 298.075226,63.939777 
	C297.905975,64.682564 299.147217,65.746811 299.744812,66.664352 
	C300.257324,65.144508 300.858002,63.646648 301.244751,62.095444 
	C301.434570,61.333939 301.227570,60.473499 300.998871,58.760960 
M282.530792,74.858383 
	C282.460815,75.245049 282.390869,75.631714 282.320892,76.018379 
	C282.487976,75.723450 282.655090,75.428520 282.530792,74.858383 
z"/>
<path fill="#F80000" opacity="1.000000" stroke="none" 
	d="
M150.957870,57.967709 
	C153.161728,52.557034 156.301712,50.577888 161.158600,51.538139 
	C165.757034,52.447296 167.957611,55.369801 168.051071,61.047108 
	C168.146942,66.871956 168.132935,72.700226 168.062546,78.525742 
	C167.988968,84.614761 165.864059,87.585999 161.121475,88.511101 
	C156.238495,89.463577 153.060776,87.383759 150.451767,81.265923 
	C148.915314,86.260971 145.874237,89.161674 140.678436,88.646790 
	C136.101486,88.193230 133.544266,85.428802 133.001328,79.988640 
	C132.982086,72.730469 132.976227,66.321106 132.970367,59.911736 
	C133.239166,55.216103 135.496338,52.078751 140.282196,51.457035 
	C144.880432,50.859688 148.268112,52.713116 149.894958,58.066032 
	C149.914597,60.808857 149.882324,62.783958 149.426086,64.771286 
	C147.224258,64.783516 145.446381,64.783516 143.765533,64.783516 
	C143.190033,62.002380 142.731216,59.785080 142.272385,57.567776 
	C141.770035,57.631401 141.267670,57.695023 140.765320,57.758648 
	C140.765320,65.928452 140.765320,74.098259 140.765320,82.268059 
	C141.299149,82.320038 141.832977,82.372017 142.366806,82.423996 
	C142.793091,80.017197 143.219376,77.610397 143.679779,75.010956 
	C145.942383,74.799301 148.185593,74.589462 150.664749,74.357552 
	C150.664749,71.115021 150.664749,68.147308 150.768555,64.738411 
	C150.900879,62.187386 150.929367,60.077549 150.957870,57.967709 
M157.783691,70.494148 
	C157.783691,74.433464 157.783691,78.372772 157.783691,82.312088 
	C161.871429,79.164146 161.886383,60.917763 158.228561,56.497913 
	C158.053085,61.627960 157.918335,65.567352 157.783691,70.494148 
z"/>
<path fill="#F10000" opacity="1.000000" stroke="none" 
	d="
M326.983398,55.049313 
	C328.725494,52.703617 330.383026,50.288116 332.240479,48.037647 
	C333.407562,46.623589 334.874634,45.457130 336.207092,44.179585 
	C336.657623,44.530796 337.108124,44.882008 337.558624,45.233215 
	C337.691254,47.188705 337.823883,49.144196 337.915253,50.491535 
	C339.720123,52.078732 341.211243,53.390038 342.783783,54.772938 
	C346.659180,51.134506 350.785767,50.056999 354.605804,52.397720 
	C358.826752,54.984108 358.798462,59.070042 358.214600,63.672943 
	C355.594971,63.672943 353.196808,63.672943 349.525879,63.672943 
	C351.486694,65.919830 352.899719,67.221359 353.919159,68.780251 
	C355.521301,71.230072 357.473267,73.698425 358.163605,76.439369 
	C359.203552,80.568375 358.878967,85.019333 354.655243,87.495163 
	C350.166962,90.126106 346.020569,88.721725 343.591675,86.224083 
	C340.991425,87.042839 339.220520,88.095505 337.480164,88.047188 
	C333.654755,87.941010 331.180481,85.572487 330.979126,81.793175 
	C330.625885,75.163902 330.860596,68.503914 330.536621,61.872063 
	C330.451752,60.134701 329.217163,58.453499 327.872803,56.584984 
	C327.151123,55.965408 327.067261,55.507359 326.983398,55.049313 
M351.359161,80.472366 
	C350.699951,78.316345 350.654297,75.582924 349.268677,74.110443 
	C344.758636,69.317711 340.199768,64.771675 341.388214,56.788280 
	C339.492340,57.777340 337.951965,58.871700 337.908722,60.022350 
	C337.672180,66.313683 337.671204,72.624153 337.924408,78.914574 
	C337.972595,80.111473 339.526184,81.247765 340.385193,82.412025 
	C340.732849,82.110451 341.080505,81.808876 341.428162,81.507301 
	C341.529785,79.898880 341.631409,78.290451 341.742340,76.534424 
	C344.071869,76.534424 346.092682,76.534424 348.255554,76.534424 
	C348.481842,78.504707 348.668457,80.129936 348.855103,81.755157 
	C349.658722,81.611671 350.462341,81.468185 351.359161,80.472366 
M351.351685,59.795933 
	C351.019257,58.901394 350.686859,58.006851 350.354462,57.112312 
	C349.912292,57.207382 349.470123,57.302452 349.027985,57.397522 
	C349.212646,59.437119 349.397339,61.476715 349.582001,63.516308 
	C350.001984,63.495468 350.421936,63.474625 350.841919,63.453781 
	C351.014038,62.546349 351.186157,61.638916 351.351685,59.795933 
z"/>
<path fill="#F60000" opacity="1.000000" stroke="none" 
	d="
M191.467026,80.861649 
	C191.467300,72.886093 191.467300,65.393166 191.467300,56.858112 
	C187.909714,59.832394 187.909714,59.832394 187.909714,72.059753 
	C187.909714,77.183479 187.909714,82.307205 187.909714,87.717056 
	C185.553879,87.717056 183.623474,87.717056 180.509583,87.717056 
	C180.509583,77.851982 180.509583,67.795616 180.509583,57.739254 
	C179.838470,57.729092 179.167358,57.718925 178.496231,57.708759 
	C175.617935,62.114822 177.423080,67.292847 177.130798,72.078903 
	C176.818970,77.185181 177.060577,82.325249 177.060577,87.728027 
	C174.616180,87.728027 172.568359,87.728027 170.268417,87.728027 
	C170.268417,75.793648 170.268417,64.051163 170.268417,51.536629 
	C174.462845,52.884201 178.500397,53.222012 182.626038,51.527729 
	C183.734482,51.072536 185.779388,52.897697 187.250534,52.711555 
	C190.002579,52.475842 193.351013,51.187340 195.333344,52.310337 
	C197.192276,53.363430 198.412628,56.936199 198.511246,59.455128 
	C198.874512,68.732849 198.655487,78.033371 198.655487,87.668015 
	C196.221222,87.668015 194.160904,87.668015 191.466751,87.668015 
	C191.466751,85.565643 191.466751,83.454964 191.467026,80.861649 
z"/>
<path fill="#F20000" opacity="1.000000" stroke="none" 
	d="
M92.192429,61.999355 
	C92.192490,55.022022 92.192490,48.544441 92.192490,41.641102 
	C94.711975,41.641102 96.908546,41.641102 99.690514,41.641102 
	C100.110435,55.026794 99.417671,68.477028 100.071342,81.845947 
	C100.956917,81.915863 101.842491,81.985779 102.728073,82.055695 
	C103.153259,80.243599 103.924149,78.435699 103.946175,76.618729 
	C104.067314,66.627869 104.005249,56.634792 104.006020,46.642479 
	C104.006142,45.019451 104.006035,43.396423 104.006035,41.496155 
	C106.594177,41.496155 108.680664,41.496155 111.449501,41.496155 
	C111.449501,46.224934 111.481705,50.841774 111.442429,55.458000 
	C111.373016,63.614487 111.496887,71.782639 111.083153,79.922684 
	C110.801399,85.465927 107.201752,88.625481 102.129082,88.755661 
	C97.060539,88.885742 93.246193,85.963844 92.680412,80.445961 
	C92.071709,74.509415 92.318710,68.485115 92.192429,61.999355 
z"/>
<path fill="#F80000" opacity="1.000000" stroke="none" 
	d="
M240.559662,52.821053 
	C243.057724,52.551453 245.231079,52.054241 247.911041,51.441128 
	C247.911041,65.028786 248.105194,77.954552 247.814682,90.869415 
	C247.699783,95.976601 243.596298,99.047920 238.703339,98.727974 
	C233.384476,98.380188 230.833710,95.147995 230.895493,88.570641 
	C234.411743,87.834763 237.781891,87.191628 238.547241,92.743759 
	C239.080185,92.613312 239.613129,92.482857 240.146072,92.352409 
	C240.518753,89.818695 240.891434,87.284981 241.301758,84.495338 
	C232.961700,87.309990 230.208969,85.307770 230.152313,76.868240 
	C230.112122,70.882591 229.951233,64.886147 230.234528,58.913029 
	C230.544662,52.373978 234.257507,50.174297 240.559662,52.821053 
M237.225677,59.454044 
	C237.337860,66.277451 236.448288,73.196884 237.909561,80.512589 
	C239.453766,79.621735 239.962234,79.473145 239.969421,79.303368 
	C240.252930,72.595284 240.512070,65.885536 240.597717,59.173752 
	C240.599609,59.025188 238.556061,58.850533 237.225677,59.454044 
z"/>
<path fill="#F70000" opacity="1.000000" stroke="none" 
	d="
M132.615097,59.810555 
	C132.976227,66.321106 132.982086,72.730469 132.979187,79.614151 
	C132.639297,80.393074 132.092392,80.647797 132.008728,81.009628 
	C130.153961,89.031219 129.106339,89.684319 120.908524,87.451637 
	C120.908524,91.143707 120.908524,94.729851 120.908524,98.546021 
	C118.579376,98.546021 116.657532,98.546021 114.378815,98.546021 
	C114.378815,83.077843 114.378815,67.718414 114.378815,51.713169 
	C115.895775,51.966175 117.399887,52.172569 118.882019,52.483692 
	C119.583954,52.631039 120.315094,53.312683 120.912140,53.185390 
	C129.952042,51.258057 130.350876,51.466423 132.615097,59.810555 
M124.919342,61.118629 
	C124.536453,59.869884 124.153564,58.621136 123.634644,56.928730 
	C120.060501,61.108322 120.093529,79.083855 124.594963,82.542610 
	C124.704147,75.695641 124.813332,68.848663 124.919342,61.118629 
z"/>
<path fill="#F70000" opacity="1.000000" stroke="none" 
	d="
M217.345718,70.011986 
	C217.345398,76.147179 217.345398,81.785507 217.345398,87.717331 
	C214.936523,87.717331 212.867264,87.717331 210.500305,87.717331 
	C210.500305,75.892113 210.500305,64.158890 210.500305,51.399769 
	C212.746735,52.037548 214.706223,52.593861 217.352722,53.345226 
	C224.555634,49.292503 228.009583,51.276337 228.041550,60.543659 
	C228.072418,69.495544 228.048233,78.447617 228.048233,87.704941 
	C225.647247,87.704941 223.598541,87.704941 221.015259,87.704941 
	C221.015259,82.489746 221.015274,77.379852 221.015274,72.269951 
	C221.015274,67.444458 221.015259,62.618961 221.015259,57.793468 
	C220.309753,57.776443 219.604233,57.759422 218.898727,57.742397 
	C215.961243,61.186207 217.903778,65.598862 217.345718,70.011986 
z"/>
<path fill="#F90000" opacity="1.000000" stroke="none" 
	d="
M326.955139,54.695198 
	C327.067261,55.507359 327.151123,55.965408 327.391663,56.596191 
	C327.654083,66.546516 327.759827,76.324112 327.642700,86.662399 
	C327.240265,87.380539 327.105957,87.570038 327.016846,87.791580 
	C325.199036,87.791580 323.381226,87.791580 320.359589,87.791580 
	C320.359589,77.801521 320.359589,67.769585 320.359589,57.737656 
	C319.504608,57.734364 318.649658,57.731071 317.794678,57.727776 
	C316.018402,67.444702 317.740936,77.436867 316.825592,87.616203 
	C314.802399,87.616203 312.749908,87.616203 310.359253,87.616203 
	C310.359253,75.989204 310.359253,64.237648 310.359253,51.735264 
	C314.493134,52.994549 318.563416,53.102985 322.685883,51.556782 
	C323.620056,51.206402 325.488495,53.347050 326.955139,54.695198 
z"/>
<path fill="#F00000" opacity="1.000000" stroke="none" 
	d="
M270.273926,48.374516 
	C266.586670,47.958370 265.311707,49.346714 265.585693,52.622517 
	C265.802917,55.219299 265.629425,57.848763 265.629425,60.717186 
	C267.896820,60.895725 269.659576,61.034527 271.661194,61.192142 
	C271.661194,63.360706 271.661194,65.294235 271.661194,67.676521 
	C270.026245,67.857376 268.277893,68.050766 266.074951,68.294449 
	C266.074951,72.251717 266.074951,76.283386 266.074951,80.677956 
	C268.070801,80.841393 270.161987,81.012634 272.588470,81.211334 
	C272.588470,83.338005 272.588470,85.387024 272.588470,87.735107 
	C267.939667,87.735107 263.356873,87.735107 258.417847,87.735107 
	C258.417847,72.493156 258.417847,57.270603 258.417847,41.624580 
	C262.859375,41.624580 267.394928,41.624580 273.322632,41.624580 
	C272.335724,44.165359 271.521759,46.260937 270.273926,48.374516 
z"/>
<path fill="#E7E7E7" opacity="1.000000" stroke="none" 
	d="
M65.654900,57.000175 
	C65.654892,73.793274 65.654892,90.086365 65.654892,106.812866 
	C64.241524,106.975571 62.863728,107.134186 61.179794,107.328033 
	C61.179794,78.440369 61.179794,49.912308 61.179794,21.081787 
	C62.430592,21.081787 63.822491,21.081787 65.654907,21.081787 
	C65.654907,32.998089 65.654907,44.749130 65.654900,57.000175 
z"/>
<path fill="#FD0000" opacity="1.000000" stroke="none" 
	d="
M200.987900,85.713158 
	C200.978958,74.299484 200.978958,63.359150 200.978958,52.213974 
	C203.423004,52.213974 205.363129,52.213974 207.981079,52.213974 
	C207.981079,58.155746 207.981094,64.088181 207.981094,70.020615 
	C207.981094,75.817192 207.981079,81.613762 207.981079,88.798767 
	C205.177155,87.750031 203.086990,86.968269 200.987900,85.713158 
z"/>
<path fill="#EB0000" opacity="1.000000" stroke="none" 
	d="
M392.132019,82.771042 
	C391.336121,84.932487 390.722351,87.058502 389.349487,88.417931 
	C388.836761,88.925613 385.867096,88.068802 385.251038,87.071968 
	C384.485535,85.833267 384.302948,83.294296 385.094116,82.216370 
	C387.160797,79.400551 389.777863,79.707649 392.132019,82.771042 
z"/>
<path fill="#EC0000" opacity="1.000000" stroke="none" 
	d="
M373.866943,81.381950 
	C375.756744,84.301620 375.923370,86.941696 372.719879,88.196625 
	C371.428955,88.702324 369.012848,88.029274 367.993774,87.008865 
	C367.152100,86.166092 367.014221,82.998291 367.611145,82.648895 
	C369.316498,81.650742 371.555084,81.563576 373.866943,81.381950 
z"/>
<path fill="#EC0000" opacity="1.000000" stroke="none" 
	d="
M408.112122,81.005302 
	C408.500061,83.374756 408.837830,85.639145 408.363251,87.718109 
	C408.263428,88.155373 404.696869,88.580772 403.606689,87.793907 
	C402.509277,87.001854 401.634033,83.760010 402.197632,83.232262 
	C403.586639,81.931664 405.856842,81.572136 408.112122,81.005302 
z"/>
<path fill="#F00000" opacity="1.000000" stroke="none" 
	d="
M208.396942,44.116074 
	C206.973465,45.875473 205.644257,47.623489 203.882355,48.457619 
	C203.385895,48.692669 200.978775,46.399601 200.647110,44.984955 
	C200.394424,43.907188 202.248428,41.181564 202.798416,41.278118 
	C204.727081,41.616711 206.497055,42.859188 208.396942,44.116074 
z"/>
<path fill="#720000" opacity="1.000000" stroke="none" 
	d="
M150.724487,58.021320 
	C150.929367,60.077549 150.900879,62.187386 150.541107,64.679405 
	C150.209854,65.061584 149.850037,64.759064 149.850037,64.759064 
	C149.882324,62.783958 149.914597,60.808857 149.983948,58.408562 
	C150.020996,57.983372 150.491104,58.074932 150.724487,58.021320 
z"/>
<path fill="#F70000" opacity="1.000000" stroke="none" 
	d="
M291.850586,56.366745 
	C291.916626,56.443012 291.752014,56.601166 291.445129,56.766155 
	C291.354584,56.830498 291.671661,56.506134 291.850586,56.366745 
z"/>
<path fill="#F70000" opacity="1.000000" stroke="none" 
	d="
M272.737885,52.155304 
	C272.885376,52.404457 272.741913,52.602345 272.395660,52.866135 
	C272.040833,52.603428 272.125519,52.327427 272.737885,52.155304 
z"/>
<path fill="#F10000" opacity="1.000000" stroke="none" 
	d="
M327.244324,87.799263 
	C327.105957,87.570038 327.240265,87.380539 327.566833,87.127289 
	C327.894562,87.371552 327.813904,87.630035 327.244324,87.799263 
z"/>
<path fill="#0E0000" opacity="1.000000" stroke="none" 
	d="
M301.099518,59.209396 
	C301.227570,60.473499 301.434570,61.333939 301.244751,62.095444 
	C300.858002,63.646648 300.257324,65.144508 299.744812,66.664360 
	C299.147217,65.746811 297.905975,64.682564 298.075226,63.939777 
	C298.543762,61.883926 295.980286,58.446659 300.422241,58.019882 
	C300.589172,58.003841 300.805542,58.502270 301.099518,59.209396 
z"/>
<path fill="#F70000" opacity="1.000000" stroke="none" 
	d="
M282.676514,74.995987 
	C282.655090,75.428520 282.487976,75.723450 282.320923,76.018379 
	C282.390869,75.631714 282.460815,75.245049 282.676514,74.995987 
z"/>
<path fill="#020000" opacity="1.000000" stroke="none" 
	d="
M149.426086,64.771286 
	C149.850037,64.759064 150.209854,65.061584 150.437302,65.120590 
	C150.664749,68.147308 150.664749,71.115021 150.664749,74.357552 
	C148.185593,74.589462 145.942383,74.799301 143.679779,75.010956 
	C143.219376,77.610397 142.793091,80.017197 142.366806,82.423996 
	C141.832977,82.372017 141.299149,82.320038 140.765320,82.268059 
	C140.765320,74.098259 140.765320,65.928452 140.765320,57.758648 
	C141.267670,57.695023 141.770035,57.631401 142.272385,57.567776 
	C142.731216,59.785080 143.190033,62.002380 143.765533,64.783516 
	C145.446381,64.783516 147.224258,64.783516 149.426086,64.771286 
z"/>
<path fill="#040000" opacity="1.000000" stroke="none" 
	d="
M157.783630,70.000443 
	C157.918335,65.567352 158.053085,61.627960 158.228561,56.497913 
	C161.886383,60.917763 161.871429,79.164146 157.783691,82.312088 
	C157.783691,78.372772 157.783691,74.433464 157.783630,70.000443 
z"/>
<path fill="#0B0000" opacity="1.000000" stroke="none" 
	d="
M351.312561,80.898537 
	C350.462341,81.468185 349.658722,81.611671 348.855103,81.755157 
	C348.668457,80.129936 348.481842,78.504707 348.255554,76.534424 
	C346.092682,76.534424 344.071869,76.534424 341.742340,76.534424 
	C341.631409,78.290451 341.529785,79.898880 341.428162,81.507301 
	C341.080505,81.808876 340.732849,82.110451 340.385193,82.412025 
	C339.526184,81.247765 337.972595,80.111473 337.924408,78.914574 
	C337.671204,72.624153 337.672180,66.313683 337.908722,60.022350 
	C337.951965,58.871700 339.492340,57.777340 341.388214,56.788280 
	C340.199768,64.771675 344.758636,69.317711 349.268677,74.110443 
	C350.654297,75.582924 350.699951,78.316345 351.312561,80.898537 
z"/>
<path fill="#010000" opacity="1.000000" stroke="none" 
	d="
M351.354980,60.263710 
	C351.186157,61.638916 351.014038,62.546349 350.841919,63.453781 
	C350.421936,63.474625 350.001984,63.495468 349.582001,63.516308 
	C349.397339,61.476715 349.212646,59.437119 349.027985,57.397522 
	C349.470123,57.302452 349.912292,57.207382 350.354462,57.112312 
	C350.686859,58.006851 351.019257,58.901394 351.354980,60.263710 
z"/>
<path fill="#170000" opacity="1.000000" stroke="none" 
	d="
M237.346176,59.071045 
	C238.556061,58.850533 240.599609,59.025188 240.597717,59.173752 
	C240.512070,65.885536 240.252930,72.595284 239.969421,79.303368 
	C239.962234,79.473145 239.453766,79.621735 237.909561,80.512589 
	C236.448288,73.196884 237.337860,66.277451 237.346176,59.071045 
z"/>
<path fill="#180000" opacity="1.000000" stroke="none" 
	d="
M124.920929,61.560158 
	C124.813332,68.848663 124.704147,75.695641 124.594963,82.542610 
	C120.093529,79.083855 120.060501,61.108322 123.634644,56.928730 
	C124.153564,58.621136 124.536453,59.869884 124.920929,61.560158 
z"/>
</svg>